G04*
G04 #@! TF.GenerationSoftware,Altium Limited,Altium Designer,23.5.1 (21)*
G04*
G04 Layer_Color=255*
%FSLAX44Y44*%
%MOMM*%
G71*
G04*
G04 #@! TF.SameCoordinates,94069164-061E-4E51-8288-264057568BAF*
G04*
G04*
G04 #@! TF.FilePolarity,Positive*
G04*
G01*
G75*
%ADD115R,1.6000X1.6000*%
%ADD116C,1.6000*%
%ADD117C,1.5000*%
%ADD118R,1.5000X1.5000*%
%ADD119C,2.6000*%
%ADD120C,2.5000*%
%ADD121C,1.5240*%
%ADD122C,2.7500*%
%ADD123C,5.0000*%
%ADD124R,1.8000X3.0000*%
%ADD125C,1.9000*%
%ADD126R,1.0000X1.0000*%
%ADD127C,1.0000*%
%ADD128R,1.6000X1.6000*%
D115*
X65000Y1150800D02*
D03*
X68000Y428000D02*
D03*
X72370Y887260D02*
D03*
X67290Y635800D02*
D03*
D116*
X65000Y1125400D02*
D03*
Y1100000D02*
D03*
X68000Y351800D02*
D03*
Y377200D02*
D03*
Y402600D02*
D03*
X72370Y861860D02*
D03*
Y836460D02*
D03*
Y811060D02*
D03*
Y785660D02*
D03*
Y760260D02*
D03*
Y734860D02*
D03*
Y709460D02*
D03*
X67290Y610400D02*
D03*
Y585000D02*
D03*
Y559600D02*
D03*
Y534200D02*
D03*
Y508800D02*
D03*
X234000Y1415000D02*
D03*
X208600D02*
D03*
D117*
X402200Y175000D02*
D03*
D118*
X376800D02*
D03*
D119*
X326000Y124200D02*
D03*
X427600D02*
D03*
D120*
X623941Y1324000D02*
D03*
X665941D02*
D03*
X707941D02*
D03*
X623941Y1379000D02*
D03*
X665941D02*
D03*
X707941D02*
D03*
X749941Y1324000D02*
D03*
X791941D02*
D03*
X833941D02*
D03*
X875941D02*
D03*
X749941Y1379000D02*
D03*
X791941D02*
D03*
X833941D02*
D03*
X875941D02*
D03*
X917941Y1324000D02*
D03*
Y1379000D02*
D03*
X959941Y1324000D02*
D03*
Y1379000D02*
D03*
X1360000Y737000D02*
D03*
X1305000D02*
D03*
Y695000D02*
D03*
X1360000D02*
D03*
Y945000D02*
D03*
X1305000D02*
D03*
Y987000D02*
D03*
X1360000D02*
D03*
X1362000Y1190000D02*
D03*
X1307000D02*
D03*
X1365000Y470000D02*
D03*
X1310000D02*
D03*
X134000Y1303000D02*
D03*
X189000D02*
D03*
X134000Y210000D02*
D03*
X189000D02*
D03*
D121*
X825300Y132000D02*
D03*
X800300D02*
D03*
X780300D02*
D03*
X755300D02*
D03*
D122*
X856000Y105000D02*
D03*
X724600D02*
D03*
D123*
X100000Y100000D02*
D03*
X1400000Y1400000D02*
D03*
X100000D02*
D03*
X1400000Y100000D02*
D03*
D124*
X1274000Y110000D02*
D03*
X1240000D02*
D03*
X1188000D02*
D03*
X1277000Y37000D02*
D03*
X1178000D02*
D03*
D125*
X1430000Y390000D02*
D03*
Y165000D02*
D03*
D126*
X257500Y1460000D02*
D03*
D127*
X245000D02*
D03*
X232500D02*
D03*
X220000D02*
D03*
X207500D02*
D03*
D128*
X259400Y1415000D02*
D03*
M02*
