G04*
G04 #@! TF.GenerationSoftware,Altium Limited,Altium Designer,23.5.1 (21)*
G04*
G04 Layer_Color=32896*
%FSLAX44Y44*%
%MOMM*%
G71*
G04*
G04 #@! TF.SameCoordinates,94069164-061E-4E51-8288-264057568BAF*
G04*
G04*
G04 #@! TF.FilePolarity,Positive*
G04*
G01*
G75*
%ADD112C,0.8000*%
G36*
X168490Y89167D02*
X165781D01*
Y88490D01*
X164427D01*
Y87812D01*
X163750D01*
Y87135D01*
X162396D01*
Y89167D01*
X156302D01*
Y58698D01*
X156979D01*
Y55312D01*
X157656D01*
Y53958D01*
X158333D01*
Y53281D01*
X159010D01*
Y51927D01*
X159688D01*
Y51250D01*
X161042D01*
Y50573D01*
X162396D01*
Y49896D01*
X163750D01*
Y49219D01*
X167812D01*
Y48542D01*
X170521D01*
Y49896D01*
X171198D01*
Y51250D01*
X171875D01*
Y53281D01*
X167135D01*
Y53958D01*
X165781D01*
Y54635D01*
X164427D01*
Y55312D01*
X163750D01*
Y55990D01*
X163073D01*
Y57344D01*
X162396D01*
Y62083D01*
X163073D01*
Y61406D01*
X163750D01*
Y60729D01*
X164427D01*
Y60052D01*
X165781D01*
Y59375D01*
X168490D01*
Y58698D01*
X171875D01*
Y59375D01*
X173906D01*
Y60052D01*
X175260D01*
Y60729D01*
X176615D01*
Y61406D01*
X177292D01*
Y62083D01*
X177969D01*
Y63438D01*
X178646D01*
Y64115D01*
X179323D01*
Y65469D01*
X180000D01*
Y67500D01*
X180677D01*
Y70885D01*
X181354D01*
Y78333D01*
X180677D01*
Y81042D01*
X180000D01*
Y83073D01*
X179323D01*
Y84427D01*
X178646D01*
Y85104D01*
X177969D01*
Y85781D01*
X177292D01*
Y87135D01*
X175938D01*
Y87812D01*
X175260D01*
Y88490D01*
X173906D01*
Y89167D01*
X170521D01*
Y89844D01*
X168490D01*
Y89167D01*
D02*
G37*
G36*
X211823Y59375D02*
Y89167D01*
X206406D01*
Y87135D01*
X205052D01*
Y87812D01*
X203698D01*
Y88490D01*
X203021D01*
Y89167D01*
X199635D01*
Y89844D01*
X196927D01*
Y89167D01*
X194219D01*
Y88490D01*
X192865D01*
Y87812D01*
X192188D01*
Y87135D01*
X190833D01*
Y85781D01*
X190156D01*
Y84427D01*
X189479D01*
Y83073D01*
X188802D01*
Y81042D01*
X188125D01*
Y59375D01*
X193542D01*
Y78333D01*
X194219D01*
Y81042D01*
X194896D01*
Y82396D01*
X195573D01*
Y83073D01*
X196250D01*
Y83750D01*
X198281D01*
Y84427D01*
X201667D01*
Y83750D01*
X203021D01*
Y83073D01*
X204375D01*
Y81719D01*
X205052D01*
Y81042D01*
X205729D01*
Y78333D01*
X206406D01*
Y59375D01*
X211146D01*
X211823D01*
D02*
G37*
G36*
X226042Y65469D02*
Y89167D01*
X220625D01*
Y59375D01*
X226042D01*
Y64792D01*
Y65469D01*
D02*
G37*
G36*
X249740Y74271D02*
Y89167D01*
X244323D01*
Y86458D01*
X243646D01*
Y87135D01*
X242969D01*
Y87812D01*
X242292D01*
Y88490D01*
X240938D01*
Y89167D01*
X238906D01*
Y89844D01*
X235521D01*
Y89167D01*
X232812D01*
Y88490D01*
X232135D01*
Y87812D01*
X232812D01*
Y85104D01*
X233490D01*
Y83073D01*
X234844D01*
Y83750D01*
X240938D01*
Y83073D01*
X241615D01*
Y82396D01*
X242292D01*
Y81719D01*
X242969D01*
Y80365D01*
X243646D01*
Y78333D01*
X244323D01*
Y59375D01*
X249740D01*
Y73594D01*
Y74271D01*
D02*
G37*
G36*
X222656Y100000D02*
X221302D01*
Y99323D01*
X220625D01*
Y98646D01*
X219948D01*
Y94583D01*
X220625D01*
Y93906D01*
X221302D01*
Y93229D01*
X225365D01*
Y93906D01*
X226042D01*
Y94583D01*
X226719D01*
Y95938D01*
X227396D01*
Y97292D01*
X226719D01*
Y98646D01*
X226042D01*
Y99323D01*
X225365D01*
Y100000D01*
X223333D01*
X222656D01*
D02*
G37*
G36*
X267344Y89167D02*
X264635D01*
Y88490D01*
X263281D01*
Y87812D01*
X261927D01*
Y87135D01*
X261250D01*
Y86458D01*
X260573D01*
Y85781D01*
X259896D01*
Y85104D01*
X259219D01*
Y83750D01*
X258542D01*
Y82396D01*
X257865D01*
Y81042D01*
X257188D01*
Y79010D01*
X256510D01*
Y72240D01*
X276146D01*
Y69531D01*
X275469D01*
Y68177D01*
X274792D01*
Y66823D01*
X274115D01*
Y66146D01*
X273438D01*
Y65469D01*
X272760D01*
Y64792D01*
X271406D01*
Y64115D01*
X266667D01*
Y64792D01*
X264635D01*
Y65469D01*
X263281D01*
Y66146D01*
X261927D01*
Y65469D01*
X261250D01*
Y64792D01*
X260573D01*
Y64115D01*
X259896D01*
Y63438D01*
X259219D01*
Y62083D01*
X259896D01*
Y61406D01*
X261250D01*
Y60729D01*
X262604D01*
Y60052D01*
X263958D01*
Y59375D01*
X267344D01*
Y58698D01*
X270729D01*
Y59375D01*
X273438D01*
Y60052D01*
X274792D01*
Y60729D01*
X276146D01*
Y61406D01*
X276823D01*
Y62083D01*
X277500D01*
Y62760D01*
X278177D01*
Y63438D01*
X278854D01*
Y64115D01*
X279531D01*
Y65469D01*
X280208D01*
Y66823D01*
X280885D01*
Y68854D01*
X281562D01*
Y71562D01*
X282240D01*
Y76302D01*
X281562D01*
Y80365D01*
X280885D01*
Y82396D01*
X280208D01*
Y83750D01*
X279531D01*
Y84427D01*
X278854D01*
Y85781D01*
X278177D01*
Y86458D01*
X277500D01*
Y87135D01*
X276146D01*
Y87812D01*
X275469D01*
Y88490D01*
X274115D01*
Y89167D01*
X270729D01*
Y89844D01*
X267344D01*
Y89167D01*
D02*
G37*
G36*
X298490D02*
X295104D01*
Y88490D01*
X293750D01*
Y87812D01*
X293073D01*
Y87135D01*
X291719D01*
Y86458D01*
X291042D01*
Y85104D01*
X290365D01*
Y84427D01*
X289688D01*
Y83073D01*
X289010D01*
Y81719D01*
X288333D01*
Y79688D01*
X287656D01*
Y72240D01*
X307292D01*
Y70208D01*
X306615D01*
Y68177D01*
X305938D01*
Y67500D01*
X305260D01*
Y66146D01*
X304583D01*
Y65469D01*
X303906D01*
Y64792D01*
X301875D01*
Y64115D01*
X297812D01*
Y64792D01*
X295781D01*
Y65469D01*
X294427D01*
Y66146D01*
X293073D01*
Y65469D01*
X292396D01*
Y64792D01*
X291719D01*
Y64115D01*
X291042D01*
Y63438D01*
X290365D01*
Y62083D01*
X291042D01*
Y61406D01*
X292396D01*
Y60729D01*
X293073D01*
Y60052D01*
X295104D01*
Y59375D01*
X297812D01*
Y58698D01*
X301875D01*
Y59375D01*
X304583D01*
Y60052D01*
X305938D01*
Y60729D01*
X307292D01*
Y61406D01*
X307969D01*
Y62083D01*
X308646D01*
Y62760D01*
X309323D01*
Y63438D01*
X310000D01*
Y64792D01*
X310677D01*
Y65469D01*
X311354D01*
Y66146D01*
Y67500D01*
X312031D01*
Y68854D01*
X312708D01*
Y79688D01*
X312031D01*
Y81719D01*
X311354D01*
Y83073D01*
X310677D01*
Y84427D01*
X310000D01*
Y85104D01*
X309323D01*
Y86458D01*
X307969D01*
Y87135D01*
X307292D01*
Y87812D01*
X305938D01*
Y88490D01*
X304583D01*
Y89167D01*
X301875D01*
Y89844D01*
X298490D01*
Y89167D01*
D02*
G37*
G36*
X337760Y88490D02*
Y86458D01*
X337083D01*
Y87135D01*
X336406D01*
Y87812D01*
X335729D01*
Y88490D01*
X334375D01*
Y89167D01*
X330990D01*
Y89844D01*
X328281D01*
Y89167D01*
X325573D01*
Y88490D01*
X324219D01*
Y87812D01*
X323542D01*
Y87135D01*
X322865D01*
Y86458D01*
X322188D01*
Y85781D01*
X321510D01*
Y84427D01*
X320833D01*
Y82396D01*
X320156D01*
Y79688D01*
X319479D01*
Y59375D01*
X325573D01*
Y80365D01*
X326250D01*
Y81719D01*
X326927D01*
Y83073D01*
X328281D01*
Y83750D01*
X329635D01*
Y84427D01*
X333021D01*
Y83750D01*
X335052D01*
Y83073D01*
X335729D01*
Y82396D01*
X336406D01*
Y81042D01*
X337083D01*
Y79688D01*
X337760D01*
Y59375D01*
X343177D01*
Y89167D01*
X337760D01*
Y88490D01*
D02*
G37*
G36*
X378385Y89167D02*
X375677D01*
Y88490D01*
X374323D01*
Y87812D01*
X373646D01*
Y87135D01*
X372969D01*
Y86458D01*
X372292D01*
Y89167D01*
X366875D01*
Y88490D01*
X366198D01*
Y60052D01*
X366875D01*
Y55990D01*
X367552D01*
Y54635D01*
X368229D01*
Y53281D01*
X368906D01*
Y52604D01*
X369583D01*
Y51927D01*
X370260D01*
Y51250D01*
X370938D01*
Y50573D01*
X372292D01*
Y49896D01*
X373646D01*
Y49219D01*
X377708D01*
Y48542D01*
X380417D01*
Y49219D01*
X381094D01*
Y50573D01*
X381771D01*
Y53281D01*
X377031D01*
Y53958D01*
X375677D01*
Y54635D01*
X374323D01*
Y55312D01*
X373646D01*
Y55990D01*
X372969D01*
Y58021D01*
X372292D01*
Y62083D01*
X372969D01*
Y61406D01*
X373646D01*
Y60729D01*
X375000D01*
Y60052D01*
X376354D01*
Y59375D01*
X378385D01*
Y58698D01*
X381771D01*
Y59375D01*
X384479D01*
Y60052D01*
X385156D01*
Y60729D01*
X386510D01*
Y61406D01*
X387188D01*
Y62083D01*
X387865D01*
Y62760D01*
X388542D01*
Y64115D01*
X389219D01*
Y65469D01*
X389896D01*
Y66823D01*
X390573D01*
Y69531D01*
X391250D01*
Y79010D01*
X390573D01*
Y81719D01*
X389896D01*
Y83073D01*
X389219D01*
Y84427D01*
X388542D01*
Y85781D01*
X387865D01*
Y86458D01*
X387188D01*
Y87135D01*
X386510D01*
Y87812D01*
X385156D01*
Y88490D01*
X383802D01*
Y89167D01*
X381094D01*
Y89844D01*
X378385D01*
Y89167D01*
D02*
G37*
G36*
X351979Y59375D02*
X358073D01*
Y89167D01*
X351979D01*
Y60052D01*
Y59375D01*
D02*
G37*
G36*
X356719Y100000D02*
X355365D01*
Y100677D01*
X354688D01*
Y100000D01*
X352656D01*
Y99323D01*
X351979D01*
Y97969D01*
X351302D01*
Y95260D01*
X351979D01*
Y93906D01*
X353333D01*
Y93229D01*
X356719D01*
Y93906D01*
X358073D01*
Y95260D01*
X358750D01*
Y97969D01*
X358073D01*
Y99323D01*
X357396D01*
Y100000D01*
X356719D01*
D02*
G37*
G36*
X754167Y117604D02*
X753490D01*
Y118281D01*
X754167D01*
Y117604D01*
D02*
G37*
G36*
X752812Y116927D02*
X752135D01*
Y117604D01*
X752812D01*
Y116927D01*
D02*
G37*
G36*
X752135Y116250D02*
X750781D01*
Y116927D01*
X752135D01*
Y116250D01*
D02*
G37*
G36*
X636354Y40417D02*
X622135D01*
Y89844D01*
X621458D01*
Y88490D01*
X620781D01*
Y87812D01*
X620104D01*
Y86458D01*
X619427D01*
Y85104D01*
X618750D01*
Y84427D01*
X618073D01*
Y83073D01*
X617396D01*
Y82396D01*
X616719D01*
Y81042D01*
X616042D01*
Y80365D01*
X615365D01*
Y79010D01*
X614688D01*
Y78333D01*
X614010D01*
Y76979D01*
X613333D01*
Y76302D01*
X612656D01*
Y74948D01*
X611979D01*
Y74271D01*
X611302D01*
Y72917D01*
X610625D01*
Y72240D01*
X609948D01*
Y70885D01*
X609271D01*
Y70208D01*
X608594D01*
Y68854D01*
X607917D01*
Y68177D01*
X607240D01*
Y66823D01*
X606562D01*
Y66146D01*
X605885D01*
Y65469D01*
X605208D01*
Y64115D01*
X604531D01*
Y63438D01*
X603854D01*
Y62083D01*
X603177D01*
Y61406D01*
X602500D01*
Y60052D01*
X601823D01*
Y59375D01*
X601146D01*
Y58021D01*
X600469D01*
Y57344D01*
X599792D01*
Y55990D01*
X599115D01*
Y55312D01*
X598438D01*
Y53958D01*
X597760D01*
Y53281D01*
X597083D01*
Y51927D01*
X596406D01*
Y51250D01*
X595729D01*
Y49896D01*
X595052D01*
Y49219D01*
X594375D01*
Y47865D01*
X593698D01*
Y47188D01*
X593021D01*
Y45833D01*
X592344D01*
Y45156D01*
X591667D01*
Y43802D01*
X590990D01*
Y43125D01*
X590312D01*
Y41771D01*
X589635D01*
Y41094D01*
X588958D01*
Y40417D01*
X576094D01*
Y41094D01*
X575417D01*
Y115573D01*
X576094D01*
Y116250D01*
X590312D01*
Y68177D01*
X590990D01*
Y69531D01*
X591667D01*
Y70208D01*
X592344D01*
Y71562D01*
X593021D01*
Y72917D01*
X593698D01*
Y73594D01*
X594375D01*
Y74948D01*
X595052D01*
Y75625D01*
X595729D01*
Y76979D01*
X596406D01*
Y77656D01*
X597083D01*
Y79010D01*
X597760D01*
Y79688D01*
X598438D01*
Y81042D01*
X599115D01*
Y81719D01*
X599792D01*
Y83073D01*
X600469D01*
Y83750D01*
X601146D01*
Y85104D01*
X601823D01*
Y85781D01*
X602500D01*
Y87135D01*
X603177D01*
Y87812D01*
X603854D01*
Y89167D01*
X604531D01*
Y89844D01*
X605208D01*
Y91198D01*
X605885D01*
Y91875D01*
X606562D01*
Y93229D01*
X607240D01*
Y93906D01*
X607917D01*
Y95260D01*
X608594D01*
Y95938D01*
X609271D01*
Y97292D01*
X609948D01*
Y97969D01*
X610625D01*
Y99323D01*
X611302D01*
Y100000D01*
X611979D01*
Y101354D01*
X612656D01*
Y102031D01*
X613333D01*
Y103385D01*
X614010D01*
Y104062D01*
X614688D01*
Y105417D01*
X615365D01*
Y106094D01*
X616042D01*
Y107448D01*
X616719D01*
Y108125D01*
X617396D01*
Y109479D01*
X618073D01*
Y110156D01*
X618750D01*
Y111510D01*
X619427D01*
Y112188D01*
X620104D01*
Y113542D01*
X620781D01*
Y114219D01*
X621458D01*
Y115573D01*
X622135D01*
Y116250D01*
X636354D01*
Y40417D01*
D02*
G37*
G36*
X446771Y73594D02*
Y72917D01*
Y59375D01*
X416302D01*
Y79010D01*
X415625D01*
Y81042D01*
X414948D01*
Y82396D01*
X414271D01*
Y83073D01*
X413594D01*
Y83750D01*
X411562D01*
Y84427D01*
X408177D01*
Y83750D01*
X406823D01*
Y83073D01*
X405469D01*
Y81719D01*
X404792D01*
Y80365D01*
X404115D01*
Y59375D01*
X398021D01*
Y80365D01*
X398698D01*
Y82396D01*
X399375D01*
Y84427D01*
X400052D01*
Y85781D01*
X400729D01*
Y86458D01*
X401406D01*
Y87135D01*
X402083D01*
Y87812D01*
X402760D01*
Y88490D01*
X404115D01*
Y89167D01*
X406823D01*
Y89844D01*
X409531D01*
Y89167D01*
X412917D01*
Y88490D01*
X414271D01*
Y87812D01*
X414948D01*
Y87135D01*
X415625D01*
Y86458D01*
X416302D01*
Y89167D01*
X421719D01*
Y65469D01*
X441354D01*
Y77656D01*
X429844D01*
Y83073D01*
X440677D01*
Y83750D01*
X441354D01*
Y93229D01*
X421719D01*
Y98646D01*
X446771D01*
Y73594D01*
D02*
G37*
G36*
X706771Y66823D02*
X706094D01*
Y63438D01*
X705417D01*
Y60729D01*
X704740D01*
Y58021D01*
X704062D01*
Y56667D01*
X703385D01*
Y55312D01*
X702708D01*
Y53958D01*
X702031D01*
Y52604D01*
X701354D01*
Y51927D01*
X700677D01*
Y50573D01*
X700000D01*
Y49896D01*
X699323D01*
Y49219D01*
X698646D01*
Y47865D01*
X697969D01*
Y47188D01*
X697292D01*
Y46510D01*
X695938D01*
Y45833D01*
X695260D01*
Y45156D01*
X694583D01*
Y44479D01*
X693229D01*
Y43802D01*
X691875D01*
Y43125D01*
X691198D01*
Y42448D01*
X689844D01*
Y41771D01*
X687812D01*
Y41094D01*
X685781D01*
Y40417D01*
X682396D01*
Y39740D01*
X670208D01*
Y40417D01*
X666823D01*
Y41094D01*
X664792D01*
Y41771D01*
X662760D01*
Y42448D01*
X661406D01*
Y43125D01*
X660729D01*
Y43802D01*
X659375D01*
Y44479D01*
X658021D01*
Y45156D01*
X657344D01*
Y45833D01*
X655990D01*
Y46510D01*
X655312D01*
Y47188D01*
X654635D01*
Y47865D01*
X653958D01*
Y49219D01*
X653281D01*
Y49896D01*
X652604D01*
Y50573D01*
X651927D01*
Y51927D01*
X651250D01*
Y52604D01*
X650573D01*
Y53958D01*
X649896D01*
Y55312D01*
X649219D01*
Y56667D01*
X648542D01*
Y58698D01*
X647865D01*
Y60729D01*
X647188D01*
Y64115D01*
X646510D01*
Y68177D01*
X645833D01*
Y116250D01*
X660729D01*
Y70208D01*
X661406D01*
Y66823D01*
X662083D01*
Y64115D01*
X662760D01*
Y62760D01*
X663438D01*
Y61406D01*
X664115D01*
Y60052D01*
X664792D01*
Y59375D01*
X665469D01*
Y58698D01*
X666146D01*
Y58021D01*
X666823D01*
Y57344D01*
X667500D01*
Y56667D01*
X668854D01*
Y55990D01*
X669531D01*
Y55312D01*
X671562D01*
Y54635D01*
X675625D01*
Y53958D01*
X676979D01*
Y54635D01*
X681042D01*
Y55312D01*
X683073D01*
Y55990D01*
X684427D01*
Y56667D01*
X685104D01*
Y57344D01*
X685781D01*
Y58021D01*
X686458D01*
Y58698D01*
X687135D01*
Y59375D01*
X687812D01*
Y60052D01*
X688490D01*
Y61406D01*
X689167D01*
Y62083D01*
X689844D01*
Y64115D01*
X690521D01*
Y64792D01*
Y65469D01*
Y66146D01*
X691198D01*
Y69531D01*
X691875D01*
Y116250D01*
X706771D01*
Y66823D01*
D02*
G37*
G36*
X565938Y40417D02*
X531406D01*
Y41094D01*
X524635D01*
Y41771D01*
X521250D01*
Y42448D01*
X519219D01*
Y43125D01*
X517865D01*
Y43802D01*
X516510D01*
Y44479D01*
X515156D01*
Y45156D01*
X513802D01*
Y45833D01*
X513125D01*
Y46510D01*
X512448D01*
Y47188D01*
X511771D01*
Y47865D01*
X511094D01*
Y48542D01*
X510417D01*
Y49219D01*
X509740D01*
Y49896D01*
X509062D01*
Y51250D01*
X508385D01*
Y51927D01*
X507708D01*
Y53281D01*
X507031D01*
Y55312D01*
X506354D01*
Y57344D01*
X505677D01*
Y60052D01*
X505000D01*
Y68854D01*
X505677D01*
Y71562D01*
X506354D01*
Y72917D01*
X507031D01*
Y74271D01*
X507708D01*
Y75625D01*
X508385D01*
Y76302D01*
X509062D01*
Y76979D01*
X509740D01*
Y77656D01*
X510417D01*
Y78333D01*
X511094D01*
Y79010D01*
X511771D01*
Y79688D01*
X513125D01*
Y80365D01*
X514479D01*
Y81042D01*
X515156D01*
Y81719D01*
X514479D01*
Y82396D01*
X513802D01*
Y83073D01*
X513125D01*
Y83750D01*
X512448D01*
Y84427D01*
X511771D01*
Y85104D01*
X511094D01*
Y85781D01*
X510417D01*
Y87135D01*
X509740D01*
Y88490D01*
X509062D01*
Y89844D01*
X508385D01*
Y91875D01*
X507708D01*
Y100677D01*
X508385D01*
Y103385D01*
X509062D01*
Y104740D01*
X509740D01*
Y106094D01*
X510417D01*
Y107448D01*
X511094D01*
Y108125D01*
X511771D01*
Y108802D01*
X512448D01*
Y109479D01*
X513125D01*
Y110156D01*
X513802D01*
Y110833D01*
X514479D01*
Y111510D01*
X515156D01*
Y112188D01*
X516510D01*
Y112865D01*
X517865D01*
Y113542D01*
X519219D01*
Y114219D01*
X521250D01*
Y114896D01*
X523958D01*
Y115573D01*
X530052D01*
Y116250D01*
X565938D01*
Y40417D01*
D02*
G37*
G36*
X770417Y124375D02*
X769740D01*
Y123021D01*
X769062D01*
Y120990D01*
X768385D01*
Y118958D01*
X767708D01*
Y116927D01*
X767031D01*
Y114219D01*
X766354D01*
Y110156D01*
X765677D01*
Y105417D01*
X765000D01*
Y94583D01*
X765677D01*
Y89844D01*
X766354D01*
Y89167D01*
Y87135D01*
X767031D01*
Y84427D01*
X767708D01*
Y82396D01*
X768385D01*
Y80365D01*
X769062D01*
Y79010D01*
X769740D01*
Y76979D01*
X770417D01*
Y75625D01*
X771094D01*
Y74271D01*
X771771D01*
Y72917D01*
X772448D01*
Y71562D01*
X773125D01*
Y70885D01*
X773802D01*
Y69531D01*
X774479D01*
Y68854D01*
X775156D01*
Y68177D01*
X775833D01*
Y66823D01*
X776510D01*
Y66146D01*
X777188D01*
Y65469D01*
X777865D01*
Y64792D01*
X778542D01*
Y64115D01*
X779219D01*
Y63438D01*
X779896D01*
Y62760D01*
X780573D01*
Y62083D01*
X781250D01*
Y61406D01*
X781927D01*
Y60729D01*
X782604D01*
Y60052D01*
X783281D01*
Y59375D01*
X783958D01*
Y58698D01*
X784635D01*
Y58021D01*
X785312D01*
Y57344D01*
X785990D01*
Y56667D01*
X786667D01*
Y55990D01*
X788021D01*
Y55312D01*
X788698D01*
Y54635D01*
X789375D01*
Y53958D01*
X790729D01*
Y53281D01*
X791406D01*
Y52604D01*
X792083D01*
Y51927D01*
X793438D01*
Y51250D01*
X794115D01*
Y50573D01*
X795469D01*
Y49896D01*
X796146D01*
Y49219D01*
X797500D01*
Y48542D01*
X798177D01*
Y47865D01*
X799531D01*
Y47188D01*
X800885D01*
Y46510D01*
X801562D01*
Y45833D01*
X802917D01*
Y45156D01*
X804271D01*
Y44479D01*
X804948D01*
Y43802D01*
X806302D01*
Y43125D01*
X807656D01*
Y42448D01*
X809010D01*
Y41771D01*
X810365D01*
Y41094D01*
X811719D01*
Y40417D01*
X813073D01*
Y39740D01*
X811719D01*
Y40417D01*
X810365D01*
Y41094D01*
X809010D01*
Y41771D01*
X806979D01*
Y42448D01*
X805625D01*
Y43125D01*
X803594D01*
Y43802D01*
X802240D01*
Y44479D01*
X800208D01*
Y45156D01*
X798854D01*
Y45833D01*
X796823D01*
Y46510D01*
X794792D01*
Y47188D01*
X792760D01*
Y47865D01*
X790729D01*
Y48542D01*
X789375D01*
Y49219D01*
X787344D01*
Y49896D01*
X785312D01*
Y50573D01*
X783281D01*
Y51250D01*
X781250D01*
Y51927D01*
X779896D01*
Y52604D01*
X778542D01*
Y53281D01*
X777865D01*
Y53958D01*
X776510D01*
Y54635D01*
X775156D01*
Y55312D01*
X774479D01*
Y55990D01*
X773125D01*
Y56667D01*
X772448D01*
Y57344D01*
X771771D01*
Y58021D01*
X770417D01*
Y58698D01*
X769740D01*
Y59375D01*
X769062D01*
Y60052D01*
X768385D01*
Y60729D01*
X767708D01*
Y61406D01*
X767031D01*
Y62083D01*
X766354D01*
Y62760D01*
X765677D01*
Y63438D01*
X765000D01*
Y64115D01*
X764323D01*
Y64792D01*
X763646D01*
Y65469D01*
X762969D01*
Y66146D01*
X762292D01*
Y67500D01*
X761615D01*
Y68177D01*
X760938D01*
Y68854D01*
X760260D01*
Y70208D01*
X759583D01*
Y71562D01*
X758906D01*
Y72240D01*
X758229D01*
Y73594D01*
X757552D01*
Y75625D01*
X756875D01*
Y76979D01*
X756198D01*
Y79010D01*
X755521D01*
Y80365D01*
X754844D01*
Y82396D01*
X754167D01*
Y85104D01*
X753490D01*
Y87812D01*
X752812D01*
Y91198D01*
X752135D01*
Y98646D01*
X751458D01*
Y102031D01*
X752135D01*
Y108802D01*
X752812D01*
Y111510D01*
X753490D01*
Y113542D01*
X754167D01*
Y115573D01*
X754844D01*
Y116927D01*
X755521D01*
Y118958D01*
X756875D01*
Y119635D01*
X758229D01*
Y120312D01*
X759583D01*
Y120990D01*
X760938D01*
Y121667D01*
X762292D01*
Y122344D01*
X764323D01*
Y123021D01*
X765677D01*
Y123698D01*
X767031D01*
Y124375D01*
X769062D01*
Y125052D01*
X770417D01*
Y124375D01*
D02*
G37*
G36*
X750781Y115573D02*
X750104D01*
Y114896D01*
X749427D01*
Y114219D01*
X748750D01*
Y113542D01*
X747396D01*
Y112865D01*
X746719D01*
Y112188D01*
X746042D01*
Y111510D01*
X745365D01*
Y110833D01*
X744688D01*
Y110156D01*
X744010D01*
Y109479D01*
X743333D01*
Y108125D01*
X742656D01*
Y107448D01*
X741979D01*
Y106771D01*
X741302D01*
Y106094D01*
X740625D01*
Y104740D01*
X739948D01*
Y104062D01*
X739271D01*
Y102708D01*
X738594D01*
Y101354D01*
X737917D01*
Y100677D01*
X737240D01*
Y99323D01*
X736562D01*
Y97969D01*
X735885D01*
Y95938D01*
X735208D01*
Y94583D01*
X734531D01*
Y92552D01*
X733854D01*
Y89844D01*
X733177D01*
Y85104D01*
X732500D01*
Y77656D01*
X733177D01*
Y72240D01*
X733854D01*
Y68854D01*
X734531D01*
Y66146D01*
X735208D01*
Y64115D01*
X735885D01*
Y62083D01*
X736562D01*
Y60729D01*
X737240D01*
Y59375D01*
X737917D01*
Y58021D01*
X738594D01*
Y56667D01*
X739271D01*
Y55312D01*
X739948D01*
Y54635D01*
X740625D01*
Y53281D01*
X741302D01*
Y52604D01*
X741979D01*
Y51927D01*
X744010D01*
Y52604D01*
X750104D01*
Y53281D01*
X762969D01*
Y52604D01*
X758229D01*
Y51927D01*
X754167D01*
Y51250D01*
X750781D01*
Y50573D01*
X748073D01*
Y49896D01*
X745365D01*
Y49219D01*
X744010D01*
Y48542D01*
X741979D01*
Y47865D01*
X740625D01*
Y47188D01*
X738594D01*
Y46510D01*
X737240D01*
Y45833D01*
X736562D01*
Y45156D01*
X735208D01*
Y44479D01*
X734531D01*
Y43802D01*
X733854D01*
Y43125D01*
X733177D01*
Y42448D01*
X732500D01*
Y41771D01*
X731823D01*
Y41094D01*
X731146D01*
Y39740D01*
X730469D01*
Y40417D01*
X729792D01*
Y41094D01*
X729115D01*
Y42448D01*
X728438D01*
Y43802D01*
X727760D01*
Y44479D01*
X727083D01*
Y45833D01*
X726406D01*
Y47188D01*
X725729D01*
Y48542D01*
X725052D01*
Y49896D01*
X724375D01*
Y51250D01*
X723698D01*
Y52604D01*
X723021D01*
Y54635D01*
X722344D01*
Y56667D01*
X721667D01*
Y58698D01*
X720990D01*
Y61406D01*
X720312D01*
Y65469D01*
X719635D01*
Y81042D01*
X720312D01*
Y84427D01*
X720990D01*
Y87135D01*
X721667D01*
Y89167D01*
X722344D01*
Y91198D01*
X723021D01*
Y92552D01*
X723698D01*
Y93906D01*
X724375D01*
Y94583D01*
X725052D01*
Y95938D01*
X725729D01*
Y97292D01*
X726406D01*
Y97969D01*
X727083D01*
Y98646D01*
X727760D01*
Y100000D01*
X728438D01*
Y100677D01*
X729115D01*
Y101354D01*
X729792D01*
Y102031D01*
X730469D01*
Y102708D01*
X731146D01*
Y103385D01*
X731823D01*
Y104062D01*
X732500D01*
Y104740D01*
X733177D01*
Y105417D01*
X733854D01*
Y106094D01*
X734531D01*
Y106771D01*
X735208D01*
Y107448D01*
X736562D01*
Y108125D01*
X737240D01*
Y108802D01*
X737917D01*
Y109479D01*
X739271D01*
Y110156D01*
X739948D01*
Y110833D01*
X741302D01*
Y111510D01*
X741979D01*
Y112188D01*
X743333D01*
Y112865D01*
X744688D01*
Y113542D01*
X745365D01*
Y114219D01*
X746719D01*
Y114896D01*
X748073D01*
Y115573D01*
X749427D01*
Y116250D01*
X750781D01*
Y115573D01*
D02*
G37*
G36*
X481302Y35000D02*
Y34323D01*
Y29583D01*
X479271D01*
Y128438D01*
X481302D01*
Y35000D01*
D02*
G37*
%LPC*%
G36*
X167135Y84427D02*
X170521D01*
Y83750D01*
X172552D01*
Y83073D01*
X173229D01*
Y82396D01*
X173906D01*
Y81042D01*
X174583D01*
Y79688D01*
X175260D01*
Y69531D01*
X174583D01*
Y67500D01*
X173906D01*
Y66146D01*
X173229D01*
Y65469D01*
X171875D01*
Y64792D01*
X170521D01*
Y64115D01*
X167135D01*
Y64792D01*
X165104D01*
Y65469D01*
X164427D01*
Y66146D01*
X163750D01*
Y66823D01*
X163073D01*
Y67500D01*
X162396D01*
Y68177D01*
X161719D01*
Y80365D01*
X162396D01*
Y81042D01*
X163073D01*
Y81719D01*
X163750D01*
Y82396D01*
X164427D01*
Y83073D01*
X165781D01*
Y83750D01*
X167135D01*
Y84427D01*
D02*
G37*
G36*
X267344D02*
X271406D01*
Y83750D01*
X272760D01*
Y83073D01*
X274115D01*
Y81719D01*
X274792D01*
Y81042D01*
X275469D01*
Y79010D01*
X276146D01*
Y77656D01*
Y76979D01*
X262604D01*
Y79688D01*
X263281D01*
Y81042D01*
X263958D01*
Y82396D01*
X264635D01*
Y83073D01*
X265312D01*
Y83750D01*
X267344D01*
Y84427D01*
D02*
G37*
G36*
X298490D02*
X302552D01*
Y83750D01*
X303906D01*
Y83073D01*
X304583D01*
Y82396D01*
X305260D01*
Y81719D01*
X305938D01*
Y80365D01*
X306615D01*
Y79010D01*
X307292D01*
Y76979D01*
X293073D01*
Y77656D01*
X293750D01*
Y80365D01*
X294427D01*
Y81719D01*
X295104D01*
Y82396D01*
X295781D01*
Y83073D01*
X296458D01*
Y83750D01*
X298490D01*
Y84427D01*
D02*
G37*
G36*
X377708D02*
X380417D01*
Y83750D01*
X382448D01*
Y83073D01*
X383125D01*
Y82396D01*
X383802D01*
Y81719D01*
X384479D01*
Y79688D01*
X385156D01*
Y76979D01*
X385833D01*
Y72240D01*
X385156D01*
Y68854D01*
X384479D01*
Y67500D01*
X383802D01*
Y66146D01*
X383125D01*
Y65469D01*
X382448D01*
Y64792D01*
X380417D01*
Y64115D01*
X377031D01*
Y64792D01*
X375677D01*
Y65469D01*
X374323D01*
Y66146D01*
X373646D01*
Y66823D01*
X372969D01*
Y67500D01*
X372292D01*
Y81042D01*
X372969D01*
Y81719D01*
X373646D01*
Y82396D01*
X374323D01*
Y83073D01*
X375677D01*
Y83750D01*
X377708D01*
Y84427D01*
D02*
G37*
G36*
X551042Y102031D02*
X528021D01*
Y101354D01*
X525990D01*
Y100677D01*
X525312D01*
Y100000D01*
X524635D01*
Y99323D01*
X523958D01*
Y98646D01*
X523281D01*
Y97292D01*
X522604D01*
Y93229D01*
X523281D01*
Y91198D01*
X523958D01*
Y90521D01*
X524635D01*
Y89844D01*
X525312D01*
Y89167D01*
X525990D01*
Y88490D01*
X528698D01*
Y87812D01*
X551042D01*
Y102031D01*
D02*
G37*
G36*
Y74271D02*
X526667D01*
Y73594D01*
X524635D01*
Y72917D01*
X523958D01*
Y72240D01*
X522604D01*
Y70885D01*
X521927D01*
Y70208D01*
X521250D01*
Y68854D01*
X520573D01*
Y61406D01*
X521250D01*
Y60052D01*
X521927D01*
Y58698D01*
X522604D01*
Y58021D01*
X523281D01*
Y57344D01*
X523958D01*
Y56667D01*
X525312D01*
Y55990D01*
X526667D01*
Y55312D01*
X531406D01*
Y54635D01*
X551042D01*
Y66823D01*
Y67500D01*
Y74271D01*
D02*
G37*
%LPD*%
D112*
X782000Y396465D02*
Y356473D01*
Y396465D02*
X764861D01*
X759148Y394560D01*
X757243Y392656D01*
X755339Y388847D01*
Y385039D01*
X757243Y381230D01*
X759148Y379326D01*
X764861Y377421D01*
X782000D01*
X768670D02*
X755339Y356473D01*
X736867Y383134D02*
X740676Y381230D01*
X744484Y377421D01*
X746389Y371708D01*
Y367900D01*
X744484Y362186D01*
X740676Y358378D01*
X736867Y356473D01*
X731154D01*
X727345Y358378D01*
X723536Y362186D01*
X721632Y367900D01*
Y371708D01*
X723536Y377421D01*
X727345Y381230D01*
X731154Y383134D01*
X736867D01*
X712872Y373613D02*
X678594D01*
X666787Y396465D02*
Y356473D01*
Y396465D02*
X649647D01*
X643934Y394560D01*
X642030Y392656D01*
X640126Y388847D01*
Y385039D01*
X642030Y381230D01*
X643934Y379326D01*
X649647Y377421D01*
X666787D02*
X649647D01*
X643934Y375517D01*
X642030Y373613D01*
X640126Y369804D01*
Y364091D01*
X642030Y360282D01*
X643934Y358378D01*
X649647Y356473D01*
X666787D01*
X631175Y371708D02*
X608323D01*
Y375517D01*
X610227Y379326D01*
X612132Y381230D01*
X615940Y383134D01*
X621653D01*
X625462Y381230D01*
X629271Y377421D01*
X631175Y371708D01*
Y367900D01*
X629271Y362186D01*
X625462Y358378D01*
X621653Y356473D01*
X615940D01*
X612132Y358378D01*
X608323Y362186D01*
X576901Y383134D02*
Y356473D01*
Y377421D02*
X580710Y381230D01*
X584519Y383134D01*
X590232D01*
X594040Y381230D01*
X597849Y377421D01*
X599753Y371708D01*
Y367900D01*
X597849Y362186D01*
X594040Y358378D01*
X590232Y356473D01*
X584519D01*
X580710Y358378D01*
X576901Y362186D01*
X545289Y377421D02*
X547193Y381230D01*
X552906Y383134D01*
X558619D01*
X564332Y381230D01*
X566237Y377421D01*
X564332Y373613D01*
X560524Y371708D01*
X551002Y369804D01*
X547193Y367900D01*
X545289Y364091D01*
Y362186D01*
X547193Y358378D01*
X552906Y356473D01*
X558619D01*
X564332Y358378D01*
X566237Y362186D01*
X531197Y396465D02*
Y364091D01*
X529292Y358378D01*
X525484Y356473D01*
X521675D01*
X536910Y383134D02*
X523579D01*
X455975Y386943D02*
X457879Y390752D01*
X461688Y394560D01*
X465496Y396465D01*
X473114D01*
X476923Y394560D01*
X480731Y390752D01*
X482636Y386943D01*
X484540Y381230D01*
Y371708D01*
X482636Y365995D01*
X480731Y362186D01*
X476923Y358378D01*
X473114Y356473D01*
X465496D01*
X461688Y358378D01*
X457879Y362186D01*
X455975Y365995D01*
X435217Y383134D02*
X439026Y381230D01*
X442835Y377421D01*
X444739Y371708D01*
Y367900D01*
X442835Y362186D01*
X439026Y358378D01*
X435217Y356473D01*
X429504D01*
X425695Y358378D01*
X421887Y362186D01*
X419982Y367900D01*
Y371708D01*
X421887Y377421D01*
X425695Y381230D01*
X429504Y383134D01*
X435217D01*
X411222D02*
Y356473D01*
Y375517D02*
X405509Y381230D01*
X401701Y383134D01*
X395988D01*
X392179Y381230D01*
X390275Y375517D01*
Y356473D01*
X374087Y396465D02*
Y364091D01*
X372183Y358378D01*
X368374Y356473D01*
X364566D01*
X379801Y383134D02*
X366470D01*
X358853D02*
Y356473D01*
Y371708D02*
X356948Y377421D01*
X353140Y381230D01*
X349331Y383134D01*
X343618D01*
X330478D02*
X334286Y381230D01*
X338095Y377421D01*
X340000Y371708D01*
Y367900D01*
X338095Y362186D01*
X334286Y358378D01*
X330478Y356473D01*
X324765D01*
X320956Y358378D01*
X317147Y362186D01*
X315243Y367900D01*
Y371708D01*
X317147Y377421D01*
X320956Y381230D01*
X324765Y383134D01*
X330478D01*
X306483Y396465D02*
Y356473D01*
X266682Y396465D02*
Y356473D01*
Y396465D02*
X249543D01*
X243830Y394560D01*
X241925Y392656D01*
X240021Y388847D01*
Y385039D01*
X241925Y381230D01*
X243830Y379326D01*
X249543Y377421D01*
X266682D02*
X249543D01*
X243830Y375517D01*
X241925Y373613D01*
X240021Y369804D01*
Y364091D01*
X241925Y360282D01*
X243830Y358378D01*
X249543Y356473D01*
X266682D01*
X221549Y383134D02*
X225357Y381230D01*
X229166Y377421D01*
X231071Y371708D01*
Y367900D01*
X229166Y362186D01*
X225357Y358378D01*
X221549Y356473D01*
X215836D01*
X212027Y358378D01*
X208218Y362186D01*
X206314Y367900D01*
Y371708D01*
X208218Y377421D01*
X212027Y381230D01*
X215836Y383134D01*
X221549D01*
X174702D02*
Y356473D01*
Y377421D02*
X178510Y381230D01*
X182319Y383134D01*
X188032D01*
X191841Y381230D01*
X195650Y377421D01*
X197554Y371708D01*
Y367900D01*
X195650Y362186D01*
X191841Y358378D01*
X188032Y356473D01*
X182319D01*
X178510Y358378D01*
X174702Y362186D01*
X164037Y383134D02*
Y356473D01*
Y371708D02*
X162133Y377421D01*
X158324Y381230D01*
X154515Y383134D01*
X148802D01*
X122332Y396465D02*
Y356473D01*
Y377421D02*
X126141Y381230D01*
X129949Y383134D01*
X135662D01*
X139471Y381230D01*
X143280Y377421D01*
X145184Y371708D01*
Y367900D01*
X143280Y362186D01*
X139471Y358378D01*
X135662Y356473D01*
X129949D01*
X126141Y358378D01*
X122332Y362186D01*
X782000Y329275D02*
X766765Y289284D01*
X751530Y329275D02*
X766765Y289284D01*
X746389Y329275D02*
Y289284D01*
Y329275D02*
X731154Y289284D01*
X715919Y329275D02*
X731154Y289284D01*
X715919Y329275D02*
Y289284D01*
X700684Y291188D02*
X702589Y289284D01*
X704493Y291188D01*
X702589Y293092D01*
X700684Y291188D01*
Y287379D01*
X702589Y283571D01*
X704493Y281666D01*
X660502Y329275D02*
Y289284D01*
X623558Y319753D02*
X625462Y323562D01*
X629271Y327371D01*
X633080Y329275D01*
X640697D01*
X644506Y327371D01*
X648314Y323562D01*
X650219Y319753D01*
X652123Y314040D01*
Y304519D01*
X650219Y298805D01*
X648314Y294997D01*
X644506Y291188D01*
X640697Y289284D01*
X633080D01*
X629271Y291188D01*
X625462Y294997D01*
X623558Y298805D01*
Y304519D01*
X633080D02*
X623558D01*
X610608Y291188D02*
X612513Y289284D01*
X614417Y291188D01*
X612513Y293092D01*
X610608Y291188D01*
Y287379D01*
X612513Y283571D01*
X614417Y281666D01*
X570426Y329275D02*
X555191Y289284D01*
X539957Y329275D02*
X555191Y289284D01*
X534815Y329275D02*
Y289284D01*
Y329275D02*
X521484D01*
X515771Y327371D01*
X511963Y323562D01*
X510058Y319753D01*
X508154Y314040D01*
Y304519D01*
X510058Y298805D01*
X511963Y294997D01*
X515771Y291188D01*
X521484Y289284D01*
X534815D01*
X495395Y291188D02*
X497299Y289284D01*
X499203Y291188D01*
X497299Y293092D01*
X495395Y291188D01*
Y287379D01*
X497299Y283571D01*
X499203Y281666D01*
X455213Y329275D02*
Y289284D01*
Y329275D02*
X438074D01*
X432361Y327371D01*
X430456Y325466D01*
X428552Y321658D01*
Y317849D01*
X430456Y314040D01*
X432361Y312136D01*
X438074Y310232D01*
X455213D02*
X438074D01*
X432361Y308327D01*
X430456Y306423D01*
X428552Y302614D01*
Y296901D01*
X430456Y293092D01*
X432361Y291188D01*
X438074Y289284D01*
X455213D01*
X419602Y329275D02*
Y289284D01*
X396749D01*
X782000Y260181D02*
X766765Y220190D01*
X751530Y260181D02*
X766765Y220190D01*
X746389Y235424D02*
X723536D01*
Y239233D01*
X725441Y243042D01*
X727345Y244946D01*
X731154Y246851D01*
X736867D01*
X740676Y244946D01*
X744484Y241138D01*
X746389Y235424D01*
Y231616D01*
X744484Y225903D01*
X740676Y222094D01*
X736867Y220190D01*
X731154D01*
X727345Y222094D01*
X723536Y225903D01*
X714967Y246851D02*
Y220190D01*
Y235424D02*
X713062Y241138D01*
X709254Y244946D01*
X705445Y246851D01*
X699732D01*
X675166Y241138D02*
X677070Y244946D01*
X682783Y246851D01*
X688496D01*
X694209Y244946D01*
X696114Y241138D01*
X694209Y237329D01*
X690401Y235424D01*
X680879Y233520D01*
X677070Y231616D01*
X675166Y227807D01*
Y225903D01*
X677070Y222094D01*
X682783Y220190D01*
X688496D01*
X694209Y222094D01*
X696114Y225903D01*
X662978Y260181D02*
X661074Y258277D01*
X659169Y260181D01*
X661074Y262085D01*
X662978Y260181D01*
X661074Y246851D02*
Y220190D01*
X642601Y246851D02*
X646410Y244946D01*
X650219Y241138D01*
X652123Y235424D01*
Y231616D01*
X650219Y225903D01*
X646410Y222094D01*
X642601Y220190D01*
X636888D01*
X633080Y222094D01*
X629271Y225903D01*
X627366Y231616D01*
Y235424D01*
X629271Y241138D01*
X633080Y244946D01*
X636888Y246851D01*
X642601D01*
X618606D02*
Y220190D01*
Y239233D02*
X612893Y244946D01*
X609085Y246851D01*
X603372D01*
X599563Y244946D01*
X597659Y239233D01*
Y220190D01*
X555763Y252564D02*
X551954Y254468D01*
X546241Y260181D01*
Y220190D01*
X782000Y192991D02*
Y153000D01*
Y192991D02*
X757243D01*
X782000Y173948D02*
X766765D01*
X752673Y168235D02*
X729821D01*
Y172043D01*
X731725Y175852D01*
X733629Y177757D01*
X737438Y179661D01*
X743151D01*
X746960Y177757D01*
X750769Y173948D01*
X752673Y168235D01*
Y164426D01*
X750769Y158713D01*
X746960Y154904D01*
X743151Y153000D01*
X737438D01*
X733629Y154904D01*
X729821Y158713D01*
X721251Y192991D02*
Y153000D01*
Y173948D02*
X717442Y177757D01*
X713634Y179661D01*
X707921D01*
X704112Y177757D01*
X700303Y173948D01*
X698399Y168235D01*
Y164426D01*
X700303Y158713D01*
X704112Y154904D01*
X707921Y153000D01*
X713634D01*
X717442Y154904D01*
X721251Y158713D01*
X687925Y156809D02*
X689829Y154904D01*
X687925Y153000D01*
X686021Y154904D01*
X687925Y156809D01*
X643934Y183470D02*
Y185374D01*
X642030Y189183D01*
X640126Y191087D01*
X636317Y192991D01*
X628700D01*
X624891Y191087D01*
X622986Y189183D01*
X621082Y185374D01*
Y181565D01*
X622986Y177757D01*
X626795Y172043D01*
X645839Y153000D01*
X619178D01*
X598801Y192991D02*
X604514Y191087D01*
X608323Y185374D01*
X610227Y175852D01*
Y170139D01*
X608323Y160617D01*
X604514Y154904D01*
X598801Y153000D01*
X594992D01*
X589279Y154904D01*
X585471Y160617D01*
X583566Y170139D01*
Y175852D01*
X585471Y185374D01*
X589279Y191087D01*
X594992Y192991D01*
X598801D01*
X572712Y183470D02*
Y185374D01*
X570807Y189183D01*
X568903Y191087D01*
X565094Y192991D01*
X557477D01*
X553668Y191087D01*
X551764Y189183D01*
X549859Y185374D01*
Y181565D01*
X551764Y177757D01*
X555572Y172043D01*
X574616Y153000D01*
X547955D01*
X519961Y192991D02*
X539005Y166331D01*
X510439D01*
X519961Y192991D02*
Y153000D01*
M02*
