G04*
G04 #@! TF.GenerationSoftware,Altium Limited,Altium Designer,23.5.1 (21)*
G04*
G04 Layer_Color=16711935*
%FSLAX44Y44*%
%MOMM*%
G71*
G04*
G04 #@! TF.SameCoordinates,94069164-061E-4E51-8288-264057568BAF*
G04*
G04*
G04 #@! TF.FilePolarity,Negative*
G04*
G01*
G75*
%ADD91R,1.8040X1.8040*%
%ADD92C,1.8040*%
%ADD93C,1.6020*%
%ADD94R,1.6020X1.6020*%
%ADD95C,2.7020*%
%ADD96C,2.7040*%
%ADD97C,1.7280*%
%ADD98C,2.9540*%
%ADD99C,5.2040*%
%ADD100R,2.0040X3.2040*%
%ADD101C,2.1040*%
%ADD102R,1.1020X1.1020*%
%ADD103C,1.1020*%
%ADD104R,1.8040X1.8040*%
%ADD105C,1.2040*%
%ADD106C,1.4740*%
%ADD107C,1.4040*%
%ADD108C,1.6040*%
D91*
X65000Y1150800D02*
D03*
X68000Y428000D02*
D03*
X72370Y887260D02*
D03*
X67290Y635800D02*
D03*
D92*
X65000Y1125400D02*
D03*
Y1100000D02*
D03*
X68000Y351800D02*
D03*
Y377200D02*
D03*
Y402600D02*
D03*
X72370Y861860D02*
D03*
Y836460D02*
D03*
Y811060D02*
D03*
Y785660D02*
D03*
Y760260D02*
D03*
Y734860D02*
D03*
Y709460D02*
D03*
X67290Y610400D02*
D03*
Y585000D02*
D03*
Y559600D02*
D03*
Y534200D02*
D03*
Y508800D02*
D03*
X234000Y1415000D02*
D03*
X208600D02*
D03*
D93*
X402200Y175000D02*
D03*
D94*
X376800D02*
D03*
D95*
X326000Y124200D02*
D03*
X427600D02*
D03*
D96*
X623941Y1324000D02*
D03*
X665941D02*
D03*
X707941D02*
D03*
X623941Y1379000D02*
D03*
X665941D02*
D03*
X707941D02*
D03*
X749941Y1324000D02*
D03*
X791941D02*
D03*
X833941D02*
D03*
X875941D02*
D03*
X749941Y1379000D02*
D03*
X791941D02*
D03*
X833941D02*
D03*
X875941D02*
D03*
X917941Y1324000D02*
D03*
Y1379000D02*
D03*
X959941Y1324000D02*
D03*
Y1379000D02*
D03*
X1360000Y737000D02*
D03*
X1305000D02*
D03*
Y695000D02*
D03*
X1360000D02*
D03*
Y945000D02*
D03*
X1305000D02*
D03*
Y987000D02*
D03*
X1360000D02*
D03*
X1362000Y1190000D02*
D03*
X1307000D02*
D03*
X1365000Y470000D02*
D03*
X1310000D02*
D03*
X134000Y1303000D02*
D03*
X189000D02*
D03*
X134000Y210000D02*
D03*
X189000D02*
D03*
D97*
X825300Y132000D02*
D03*
X800300D02*
D03*
X780300D02*
D03*
X755300D02*
D03*
D98*
X856000Y105000D02*
D03*
X724600D02*
D03*
D99*
X100000Y100000D02*
D03*
X1400000Y1400000D02*
D03*
X100000D02*
D03*
X1400000Y100000D02*
D03*
D100*
X1274000Y110000D02*
D03*
X1240000D02*
D03*
X1188000D02*
D03*
X1277000Y37000D02*
D03*
X1178000D02*
D03*
D101*
X1430000Y390000D02*
D03*
Y165000D02*
D03*
D102*
X257500Y1460000D02*
D03*
D103*
X245000D02*
D03*
X232500D02*
D03*
X220000D02*
D03*
X207500D02*
D03*
D104*
X259400Y1415000D02*
D03*
D105*
X758619Y795964D02*
D03*
X740000Y790000D02*
D03*
X340000Y915000D02*
D03*
X475000Y895000D02*
D03*
X581453Y859861D02*
D03*
X637776Y855911D02*
D03*
X520000Y885000D02*
D03*
X509714Y879857D02*
D03*
X550000Y545000D02*
D03*
Y560000D02*
D03*
X176001Y654408D02*
D03*
X678953Y657361D02*
D03*
X520000Y630000D02*
D03*
X505000D02*
D03*
X485000Y625000D02*
D03*
X445062Y544853D02*
D03*
X445000Y560000D02*
D03*
X770000Y550000D02*
D03*
X778000Y654756D02*
D03*
X760000Y813500D02*
D03*
X759839Y840895D02*
D03*
X761391Y829500D02*
D03*
X126349Y754756D02*
D03*
X685000Y640000D02*
D03*
X737512Y774404D02*
D03*
X823686Y723686D02*
D03*
X76349Y1054756D02*
D03*
X531114Y1006482D02*
D03*
X530000Y990000D02*
D03*
X414306Y788656D02*
D03*
X402411Y788911D02*
D03*
X515000Y995000D02*
D03*
X505433Y969163D02*
D03*
X638082Y835456D02*
D03*
X825000Y1105000D02*
D03*
X724500Y893929D02*
D03*
X706916Y924584D02*
D03*
X628500Y774144D02*
D03*
X639329Y795365D02*
D03*
X856528Y977080D02*
D03*
X713868Y860133D02*
D03*
X724541Y848179D02*
D03*
X715000Y835000D02*
D03*
X700000Y840000D02*
D03*
X696471Y829055D02*
D03*
X675000Y835000D02*
D03*
X621013Y1154756D02*
D03*
X690000Y815000D02*
D03*
X252090Y1197974D02*
D03*
X326349Y1154756D02*
D03*
X406000Y1091000D02*
D03*
X452673Y1038641D02*
D03*
X426349Y1154756D02*
D03*
X225000Y1175000D02*
D03*
X245000Y975000D02*
D03*
X176349Y1054756D02*
D03*
X609128Y808511D02*
D03*
X646843Y771843D02*
D03*
X340000Y900000D02*
D03*
X427000Y1013000D02*
D03*
X724895Y956209D02*
D03*
X565000Y1015000D02*
D03*
X682093Y1254756D02*
D03*
X726349Y1154756D02*
D03*
X776349Y1254756D02*
D03*
X826349Y754756D02*
D03*
X1026349D02*
D03*
X1126349D02*
D03*
X326349Y1354756D02*
D03*
X409236Y577385D02*
D03*
X1426349Y1354756D02*
D03*
Y1154756D02*
D03*
X1376349Y1054756D02*
D03*
X1426349Y754756D02*
D03*
X1376349Y654756D02*
D03*
X1426349Y354756D02*
D03*
X1376349Y254756D02*
D03*
Y54756D02*
D03*
X1326349Y1154756D02*
D03*
Y754756D02*
D03*
X1276349Y654756D02*
D03*
Y454756D02*
D03*
X1326349Y354756D02*
D03*
X1276349Y254756D02*
D03*
X1326349Y154756D02*
D03*
X1176349Y454756D02*
D03*
X1226349Y154756D02*
D03*
X1076349Y1254756D02*
D03*
X1126349Y1154756D02*
D03*
X1076349Y454756D02*
D03*
X1126349Y354756D02*
D03*
X1076349Y254756D02*
D03*
X1126349Y154756D02*
D03*
X976349Y1254756D02*
D03*
X1026349Y1154756D02*
D03*
Y554756D02*
D03*
X976349Y454756D02*
D03*
X1026349Y354756D02*
D03*
X976349Y254756D02*
D03*
X1026349Y154756D02*
D03*
X926349Y1154756D02*
D03*
Y354756D02*
D03*
Y154756D02*
D03*
X876349Y54756D02*
D03*
X826349Y1154756D02*
D03*
X776349Y1054756D02*
D03*
X826349Y954756D02*
D03*
Y354756D02*
D03*
X776349Y254756D02*
D03*
X826349Y154756D02*
D03*
X776349Y54756D02*
D03*
X726349Y1354756D02*
D03*
X676349Y454756D02*
D03*
Y254756D02*
D03*
X726349Y154756D02*
D03*
X676349Y54756D02*
D03*
X626349Y754756D02*
D03*
Y554756D02*
D03*
Y354756D02*
D03*
X576349Y54756D02*
D03*
X476349Y1254756D02*
D03*
X526349Y1154756D02*
D03*
Y554756D02*
D03*
Y354756D02*
D03*
X476349Y254756D02*
D03*
Y54756D02*
D03*
X376349Y1254756D02*
D03*
X426349Y954756D02*
D03*
Y354756D02*
D03*
X376349Y254756D02*
D03*
Y54756D02*
D03*
X326349Y954756D02*
D03*
Y754756D02*
D03*
Y554756D02*
D03*
Y354756D02*
D03*
Y154756D02*
D03*
X276349Y54756D02*
D03*
X226349Y1354756D02*
D03*
X176349Y1254756D02*
D03*
X226349Y1154756D02*
D03*
Y954756D02*
D03*
X176349Y854756D02*
D03*
X226349Y754756D02*
D03*
Y554756D02*
D03*
Y354756D02*
D03*
X176349Y254756D02*
D03*
X226349Y154756D02*
D03*
X176349Y54756D02*
D03*
X126349Y1354756D02*
D03*
X76349Y1254756D02*
D03*
X126349Y1154756D02*
D03*
X76349Y654756D02*
D03*
Y454756D02*
D03*
Y254756D02*
D03*
X126349Y154756D02*
D03*
X76349Y54756D02*
D03*
X505000Y685000D02*
D03*
X668121Y768036D02*
D03*
X965000Y965000D02*
D03*
X856093Y1037407D02*
D03*
X694232Y861857D02*
D03*
X685000Y855000D02*
D03*
X707441Y807183D02*
D03*
X695000Y775000D02*
D03*
X684714Y769857D02*
D03*
X964715Y645000D02*
D03*
X438000Y1068000D02*
D03*
X779291Y888000D02*
D03*
X858000Y896600D02*
D03*
X835000Y875000D02*
D03*
X896843Y596843D02*
D03*
X765000Y889000D02*
D03*
X815000Y915000D02*
D03*
X667000Y920000D02*
D03*
X733500Y564013D02*
D03*
X728110Y930187D02*
D03*
X784822Y872314D02*
D03*
X755000Y880000D02*
D03*
X894891Y1010668D02*
D03*
X865750Y803000D02*
D03*
X741747Y873000D02*
D03*
X905686Y874686D02*
D03*
X810000Y820000D02*
D03*
X917000Y886000D02*
D03*
X810000Y760000D02*
D03*
X942730Y604062D02*
D03*
X962478Y609480D02*
D03*
X950000Y645000D02*
D03*
X655000Y940000D02*
D03*
X664000Y1135000D02*
D03*
X660000Y1290000D02*
D03*
X748749Y518750D02*
D03*
X860000Y1085000D02*
D03*
X790000Y985000D02*
D03*
Y1000000D02*
D03*
X912828Y1061464D02*
D03*
X780000Y837500D02*
D03*
X655000Y955000D02*
D03*
X940000Y772500D02*
D03*
X960000Y740000D02*
D03*
X890000Y750000D02*
D03*
X970000Y870000D02*
D03*
X866742Y877374D02*
D03*
X1011000Y616500D02*
D03*
X945000Y1085000D02*
D03*
X1119366Y658337D02*
D03*
X795000Y475000D02*
D03*
X840000Y820000D02*
D03*
X866000Y918000D02*
D03*
X1055000Y655000D02*
D03*
X590000Y735000D02*
D03*
X570000Y670000D02*
D03*
X610000Y1290000D02*
D03*
X957000Y707500D02*
D03*
X962033Y905370D02*
D03*
X1160000Y930000D02*
D03*
X890000Y730000D02*
D03*
X906640Y830313D02*
D03*
X1074445Y759517D02*
D03*
Y744517D02*
D03*
X905000Y705000D02*
D03*
X923121Y929185D02*
D03*
X931202Y943298D02*
D03*
X938121Y929185D02*
D03*
X958081Y659113D02*
D03*
X990000Y1075000D02*
D03*
X1000745Y827964D02*
D03*
X415000Y685000D02*
D03*
X540000Y345000D02*
D03*
X989948Y627475D02*
D03*
X984864Y676837D02*
D03*
X875000Y900000D02*
D03*
X1263009Y1286799D02*
D03*
X657000Y586000D02*
D03*
X683000D02*
D03*
X605000Y685000D02*
D03*
X590000Y700000D02*
D03*
X445130Y790349D02*
D03*
X605000Y700000D02*
D03*
X590000Y685000D02*
D03*
X406943Y759491D02*
D03*
X945000Y585000D02*
D03*
X565000Y545000D02*
D03*
X445000Y575000D02*
D03*
X539576Y381960D02*
D03*
X705752Y506869D02*
D03*
X525000Y675000D02*
D03*
X145000Y595000D02*
D03*
X515000Y1445000D02*
D03*
X450000D02*
D03*
X390000D02*
D03*
X1242933Y1451026D02*
D03*
X1167721Y1451208D02*
D03*
X1095000Y1450000D02*
D03*
X1310000D02*
D03*
X1322189Y1374308D02*
D03*
X1275000Y1275000D02*
D03*
X1130000Y120000D02*
D03*
X130000Y320000D02*
D03*
X465000Y560000D02*
D03*
X670000Y586000D02*
D03*
X655000Y380000D02*
D03*
X705000Y370000D02*
D03*
X995000Y195000D02*
D03*
X980000D02*
D03*
X965000D02*
D03*
X780000Y215000D02*
D03*
X934389Y896266D02*
D03*
X489558Y677508D02*
D03*
X960000Y230000D02*
D03*
X452861Y696500D02*
D03*
X1267000Y1304000D02*
D03*
X426538Y858780D02*
D03*
X413538D02*
D03*
X399538D02*
D03*
X971000Y692000D02*
D03*
D106*
X250000Y632650D02*
D03*
Y1176000D02*
D03*
X995000Y1265000D02*
D03*
X1175000D02*
D03*
X1055000D02*
D03*
X1115000D02*
D03*
X935000D02*
D03*
X875000D02*
D03*
X1255000Y568150D02*
D03*
Y815000D02*
D03*
X639350Y1265000D02*
D03*
X250000Y814629D02*
D03*
X1382142Y212287D02*
D03*
X1363833Y211706D02*
D03*
X815000Y1265000D02*
D03*
X755000D02*
D03*
X695000D02*
D03*
X575000D02*
D03*
X515000D02*
D03*
X390000D02*
D03*
X335000D02*
D03*
X1220000Y1260000D02*
D03*
X1255000Y1225000D02*
D03*
Y1175000D02*
D03*
Y1115000D02*
D03*
Y1055000D02*
D03*
Y995000D02*
D03*
Y935000D02*
D03*
Y875000D02*
D03*
Y755000D02*
D03*
Y695000D02*
D03*
Y635000D02*
D03*
Y515000D02*
D03*
Y455000D02*
D03*
Y395000D02*
D03*
Y335000D02*
D03*
Y290000D02*
D03*
X1221615Y255000D02*
D03*
X1113607D02*
D03*
X1174083D02*
D03*
X250520Y1225520D02*
D03*
X1053400Y255000D02*
D03*
X992924D02*
D03*
X934083D02*
D03*
X873033D02*
D03*
X814593D02*
D03*
X754145D02*
D03*
X693913D02*
D03*
X635000D02*
D03*
X575000D02*
D03*
X515000D02*
D03*
X455000D02*
D03*
X395000D02*
D03*
X335000D02*
D03*
X282505Y254757D02*
D03*
X250000Y290000D02*
D03*
Y334629D02*
D03*
Y459629D02*
D03*
Y400000D02*
D03*
Y574629D02*
D03*
Y515000D02*
D03*
Y694629D02*
D03*
Y755000D02*
D03*
Y934629D02*
D03*
Y875000D02*
D03*
Y1054629D02*
D03*
Y995000D02*
D03*
Y1116371D02*
D03*
X280968Y1265000D02*
D03*
D107*
X629013Y881522D02*
D03*
X240000Y670000D02*
D03*
X1050000Y865000D02*
D03*
X922000Y562000D02*
D03*
X840038Y529569D02*
D03*
X740000Y720000D02*
D03*
X705000D02*
D03*
X595000Y855000D02*
D03*
X1160000Y530000D02*
D03*
X1210000D02*
D03*
X1185000D02*
D03*
X1160000Y565000D02*
D03*
X350229Y793730D02*
D03*
X350000Y825000D02*
D03*
Y810000D02*
D03*
X590000Y1125000D02*
D03*
X953506Y799559D02*
D03*
X945000Y550000D02*
D03*
X135000Y370000D02*
D03*
Y405000D02*
D03*
X415000Y735000D02*
D03*
X360000Y760000D02*
D03*
X293429Y731130D02*
D03*
X900000Y535000D02*
D03*
X815000D02*
D03*
X405000Y485000D02*
D03*
X1335000Y1085000D02*
D03*
X1350000Y1250000D02*
D03*
X1195000Y1130000D02*
D03*
D108*
X135000Y975000D02*
D03*
X1034575Y849592D02*
D03*
X1115000Y600000D02*
D03*
X1162270Y909776D02*
D03*
X1270000Y1075000D02*
D03*
X500000Y470000D02*
D03*
X745000Y155000D02*
D03*
X1304200Y585116D02*
D03*
X1305000Y855000D02*
D03*
X1056000Y583000D02*
D03*
X1039000Y1031000D02*
D03*
M02*
