G04*
G04 #@! TF.GenerationSoftware,Altium Limited,Altium Designer,23.5.1 (21)*
G04*
G04 Layer_Color=8421504*
%FSLAX44Y44*%
%MOMM*%
G71*
G04*
G04 #@! TF.SameCoordinates,94069164-061E-4E51-8288-264057568BAF*
G04*
G04*
G04 #@! TF.FilePolarity,Positive*
G04*
G01*
G75*
%ADD15C,2.0000*%
%ADD16R,0.8500X1.5000*%
%ADD17R,1.2000X1.2000*%
%ADD18R,1.5000X0.3000*%
%ADD19R,0.3000X1.5000*%
%ADD20R,1.0000X0.8000*%
%ADD21R,0.9500X0.6000*%
%ADD22R,1.5000X0.8500*%
%ADD23R,1.2000X0.3050*%
%ADD24R,1.6800X1.8800*%
%ADD25R,3.2000X1.1000*%
%ADD26R,3.6000X2.0000*%
%ADD27R,5.5500X6.1500*%
%ADD28R,1.0000X2.7500*%
%ADD29R,0.8000X1.4750*%
%ADD30R,0.6000X1.3000*%
%ADD31R,3.0000X1.1000*%
%ADD32R,2.0000X3.6000*%
%ADD33R,1.2000X1.2000*%
%ADD34R,1.2500X0.4200*%
%ADD35R,1.1500X0.3000*%
%ADD36R,0.3000X1.1500*%
%ADD37R,3.0000X3.0000*%
%ADD38R,6.4000X5.8000*%
%ADD39R,2.2000X0.8000*%
%ADD40R,2.6000X1.0500*%
%ADD41R,1.5000X1.3000*%
%ADD42R,1.8000X0.9000*%
%ADD43R,1.1000X0.6000*%
%ADD44R,3.7465X1.5240*%
%ADD45R,1.5240X2.0320*%
%ADD46R,1.5240X3.7465*%
%ADD47R,2.0320X1.5240*%
%ADD48R,5.0800X1.7400*%
%ADD49R,1.1000X3.2000*%
%ADD50R,1.1000X3.0000*%
%ADD51R,3.4000X0.9800*%
D15*
X265000Y195000D02*
D03*
X280000Y1305000D02*
D03*
X1085000Y190000D02*
D03*
X360000Y320000D02*
D03*
X395000Y1185000D02*
D03*
X1066691Y1193417D02*
D03*
X559009Y805665D02*
D03*
X1169818Y724676D02*
D03*
X1275000Y170000D02*
D03*
X453000Y741000D02*
D03*
X535000Y645000D02*
D03*
X379000Y859000D02*
D03*
X675000Y615000D02*
D03*
X945000Y1035000D02*
D03*
X1325000Y1115000D02*
D03*
X760000Y910000D02*
D03*
X770000Y860000D02*
D03*
X765000Y750000D02*
D03*
X1025000Y830000D02*
D03*
X1330000Y530000D02*
D03*
X860000Y740000D02*
D03*
X765000Y685000D02*
D03*
Y630000D02*
D03*
X1110000Y1040000D02*
D03*
X785000Y1075000D02*
D03*
X438000Y1068000D02*
D03*
X660000Y970000D02*
D03*
X795000Y740000D02*
D03*
X840038Y529569D02*
D03*
X681525Y131129D02*
D03*
X425000Y540000D02*
D03*
D16*
X190000Y1175000D02*
D03*
X207500D02*
D03*
X205000Y695000D02*
D03*
X222500D02*
D03*
X605000Y835000D02*
D03*
X622500D02*
D03*
X117578Y374456D02*
D03*
X100078D02*
D03*
X117500Y405000D02*
D03*
X100000D02*
D03*
X97500Y595000D02*
D03*
X115000D02*
D03*
X692500Y400000D02*
D03*
X675000D02*
D03*
X725000Y175000D02*
D03*
X742500D02*
D03*
X890000Y555000D02*
D03*
X907500D02*
D03*
X885000Y1035000D02*
D03*
X867500D02*
D03*
X133000Y1225000D02*
D03*
X115500D02*
D03*
X980000Y520000D02*
D03*
X962500D02*
D03*
X917834Y809964D02*
D03*
X935334D02*
D03*
X1372129Y1112446D02*
D03*
X1389629D02*
D03*
X1372500Y1250000D02*
D03*
X1390000D02*
D03*
X1357500Y530000D02*
D03*
X1375000D02*
D03*
X115500Y292000D02*
D03*
X133000D02*
D03*
X820000Y175000D02*
D03*
X802500D02*
D03*
X782500D02*
D03*
X765000D02*
D03*
X788624Y431980D02*
D03*
X771124D02*
D03*
X813335Y432394D02*
D03*
X830835D02*
D03*
X845000Y1070000D02*
D03*
X827500D02*
D03*
X588312Y541996D02*
D03*
X605812D02*
D03*
X667733Y905393D02*
D03*
X685233D02*
D03*
X390500Y1095000D02*
D03*
X373000D02*
D03*
X866000Y918000D02*
D03*
X883500D02*
D03*
X921500Y995000D02*
D03*
X904000D02*
D03*
X880000Y1100000D02*
D03*
X897500D02*
D03*
X891734Y582656D02*
D03*
X909234D02*
D03*
X1078000Y577000D02*
D03*
X1095500D02*
D03*
X1008000Y672000D02*
D03*
X1025500D02*
D03*
X979000Y563000D02*
D03*
X996500D02*
D03*
X897500Y1070000D02*
D03*
X880000D02*
D03*
X976000Y921000D02*
D03*
X993500D02*
D03*
X1008000Y701000D02*
D03*
X1025500D02*
D03*
X976000Y949000D02*
D03*
X993500D02*
D03*
X373000Y1042000D02*
D03*
X390500D02*
D03*
Y1069000D02*
D03*
X373000D02*
D03*
X973000Y764000D02*
D03*
X955500D02*
D03*
X727333Y910000D02*
D03*
X709833D02*
D03*
X375000Y762000D02*
D03*
X392500D02*
D03*
X905000Y1035000D02*
D03*
X922500D02*
D03*
X866500Y847000D02*
D03*
X884000D02*
D03*
Y819000D02*
D03*
X866500D02*
D03*
X884242Y878644D02*
D03*
X866742D02*
D03*
X393000Y707000D02*
D03*
X375500D02*
D03*
X375000Y735000D02*
D03*
X392500D02*
D03*
X909000Y617000D02*
D03*
X891500D02*
D03*
X862500Y960000D02*
D03*
X880000D02*
D03*
X1065000Y1040000D02*
D03*
X1082500D02*
D03*
X760000Y1110000D02*
D03*
X742500D02*
D03*
X1083000Y880000D02*
D03*
X1065500D02*
D03*
X972335Y1014853D02*
D03*
X989835D02*
D03*
X1026500Y880000D02*
D03*
X1044000D02*
D03*
X997500Y591000D02*
D03*
X980000D02*
D03*
X983500Y986000D02*
D03*
X1001000D02*
D03*
X1004500Y879000D02*
D03*
X987000D02*
D03*
X1118156Y658337D02*
D03*
X1135656D02*
D03*
X822000Y558000D02*
D03*
X839500D02*
D03*
Y586000D02*
D03*
X822000D02*
D03*
D17*
X160000Y695000D02*
D03*
X181000D02*
D03*
X140000Y1175000D02*
D03*
X161000D02*
D03*
X1441000Y545000D02*
D03*
X1420000D02*
D03*
X81000Y1225000D02*
D03*
X60000D02*
D03*
X1425469Y1112446D02*
D03*
X1446469D02*
D03*
X1426697Y1250064D02*
D03*
X1447697D02*
D03*
X81000Y292000D02*
D03*
X60000D02*
D03*
D18*
X741000Y856244D02*
D03*
Y851244D02*
D03*
Y846244D02*
D03*
Y836244D02*
D03*
Y831244D02*
D03*
Y806244D02*
D03*
Y821244D02*
D03*
Y816244D02*
D03*
Y826244D02*
D03*
Y841244D02*
D03*
Y811244D02*
D03*
Y861244D02*
D03*
X657000Y856244D02*
D03*
Y851244D02*
D03*
Y846244D02*
D03*
Y836244D02*
D03*
Y831244D02*
D03*
Y806244D02*
D03*
Y821244D02*
D03*
Y816244D02*
D03*
Y826244D02*
D03*
Y841244D02*
D03*
Y811244D02*
D03*
Y861244D02*
D03*
D19*
X686500Y791743D02*
D03*
X691500D02*
D03*
X696500D02*
D03*
X701500D02*
D03*
X716500D02*
D03*
X711500D02*
D03*
X706500D02*
D03*
X721500D02*
D03*
X681500D02*
D03*
X676500D02*
D03*
X726500D02*
D03*
X671500D02*
D03*
X686500Y875743D02*
D03*
X691500D02*
D03*
X696500D02*
D03*
X701500D02*
D03*
X716500D02*
D03*
X711500D02*
D03*
X706500D02*
D03*
X721500D02*
D03*
X681500D02*
D03*
X676500D02*
D03*
X726500D02*
D03*
X671500D02*
D03*
D20*
X170000Y1090000D02*
D03*
X145000D02*
D03*
D21*
X189500Y995500D02*
D03*
Y1014500D02*
D03*
X170000Y1005000D02*
D03*
X720500Y1084500D02*
D03*
Y1065500D02*
D03*
X740000Y1075000D02*
D03*
D22*
X225000Y997500D02*
D03*
Y980000D02*
D03*
X135000Y992500D02*
D03*
Y1010000D02*
D03*
X507000Y421000D02*
D03*
Y403500D02*
D03*
X780000Y820000D02*
D03*
Y837500D02*
D03*
X1311000Y1421500D02*
D03*
Y1404000D02*
D03*
X910313Y193875D02*
D03*
Y176375D02*
D03*
X940088Y176118D02*
D03*
Y193618D02*
D03*
X950000Y885000D02*
D03*
Y867500D02*
D03*
X946737Y833590D02*
D03*
Y851090D02*
D03*
X501000Y663000D02*
D03*
Y645500D02*
D03*
X1092225Y965563D02*
D03*
Y948063D02*
D03*
X1092834Y656703D02*
D03*
Y674203D02*
D03*
X935000Y525000D02*
D03*
Y507500D02*
D03*
X918640Y839313D02*
D03*
Y856813D02*
D03*
X707012Y1043536D02*
D03*
Y1026036D02*
D03*
X930000Y1085000D02*
D03*
Y1102500D02*
D03*
X557972Y120021D02*
D03*
Y102521D02*
D03*
X631000Y102500D02*
D03*
Y120000D02*
D03*
X539000Y402500D02*
D03*
Y420000D02*
D03*
X884000Y475000D02*
D03*
Y457500D02*
D03*
X1080000Y102500D02*
D03*
Y120000D02*
D03*
X479000Y460500D02*
D03*
Y478000D02*
D03*
X498000Y542500D02*
D03*
Y525000D02*
D03*
X530000Y523500D02*
D03*
Y541000D02*
D03*
X651000Y518500D02*
D03*
Y536000D02*
D03*
X631000Y941500D02*
D03*
Y924000D02*
D03*
X640000Y572500D02*
D03*
Y590000D02*
D03*
X378000Y577000D02*
D03*
Y594500D02*
D03*
X1129000Y634000D02*
D03*
Y616500D02*
D03*
X1305000Y1357500D02*
D03*
Y1375000D02*
D03*
X1340000D02*
D03*
Y1357500D02*
D03*
X1335454Y1276480D02*
D03*
Y1293980D02*
D03*
X1300454D02*
D03*
Y1276480D02*
D03*
X1205583Y1404000D02*
D03*
Y1421500D02*
D03*
X1242582D02*
D03*
Y1404000D02*
D03*
X387778Y1424667D02*
D03*
Y1407167D02*
D03*
X402000Y806000D02*
D03*
Y788500D02*
D03*
X431000Y806500D02*
D03*
Y789000D02*
D03*
X460000Y837000D02*
D03*
Y854500D02*
D03*
X461000Y790000D02*
D03*
Y807500D02*
D03*
X531000Y1006000D02*
D03*
Y1023500D02*
D03*
X563000Y928500D02*
D03*
Y946000D02*
D03*
X378000Y896000D02*
D03*
Y913500D02*
D03*
X498000Y946500D02*
D03*
Y929000D02*
D03*
X437803Y999197D02*
D03*
Y981697D02*
D03*
X851000Y776000D02*
D03*
Y793500D02*
D03*
X882000D02*
D03*
Y776000D02*
D03*
X879000Y1006500D02*
D03*
Y989000D02*
D03*
X832000Y630000D02*
D03*
Y612500D02*
D03*
X919142Y783789D02*
D03*
Y766289D02*
D03*
X921000Y719000D02*
D03*
Y736500D02*
D03*
X984000Y724500D02*
D03*
Y707000D02*
D03*
X957000Y725000D02*
D03*
Y707500D02*
D03*
X1039000Y633000D02*
D03*
Y615500D02*
D03*
X990000Y1102500D02*
D03*
Y1085000D02*
D03*
X960000Y1102500D02*
D03*
Y1085000D02*
D03*
X1122000Y882000D02*
D03*
Y864500D02*
D03*
X1035000Y945500D02*
D03*
Y963000D02*
D03*
X1011000Y634000D02*
D03*
Y616500D02*
D03*
X856000Y457500D02*
D03*
Y475000D02*
D03*
X501000Y593000D02*
D03*
Y610500D02*
D03*
X466000Y981500D02*
D03*
Y999000D02*
D03*
X482778Y1424667D02*
D03*
Y1407167D02*
D03*
X350778D02*
D03*
Y1424667D02*
D03*
X1278000Y1421500D02*
D03*
Y1404000D02*
D03*
X1133144Y1421500D02*
D03*
Y1404000D02*
D03*
X1060851D02*
D03*
Y1421500D02*
D03*
X418778Y1424667D02*
D03*
Y1407167D02*
D03*
X651000Y478500D02*
D03*
Y496000D02*
D03*
X488000Y836500D02*
D03*
Y854000D02*
D03*
X707742Y745218D02*
D03*
Y762718D02*
D03*
X388000Y464500D02*
D03*
Y482000D02*
D03*
X446478Y664195D02*
D03*
Y646695D02*
D03*
X472000Y593000D02*
D03*
Y610500D02*
D03*
X468000Y1078500D02*
D03*
Y1061000D02*
D03*
X469000Y947000D02*
D03*
Y929500D02*
D03*
X527000Y946500D02*
D03*
Y929000D02*
D03*
X821000Y793500D02*
D03*
Y776000D02*
D03*
X793000Y775000D02*
D03*
Y792500D02*
D03*
X831000Y889000D02*
D03*
Y906500D02*
D03*
X864000Y612000D02*
D03*
Y629500D02*
D03*
X798735Y905509D02*
D03*
Y888009D02*
D03*
X811000Y850000D02*
D03*
Y832500D02*
D03*
X840000Y849500D02*
D03*
Y832000D02*
D03*
X1011250Y801000D02*
D03*
Y783500D02*
D03*
X515985Y1407167D02*
D03*
Y1424667D02*
D03*
X1168144Y1404000D02*
D03*
Y1421500D02*
D03*
X1095851D02*
D03*
Y1404000D02*
D03*
X451778Y1407167D02*
D03*
Y1424667D02*
D03*
X467000Y542000D02*
D03*
Y524500D02*
D03*
X800000Y631000D02*
D03*
Y613500D02*
D03*
X531000Y592500D02*
D03*
Y610000D02*
D03*
X474000Y664000D02*
D03*
Y646500D02*
D03*
X573000Y595000D02*
D03*
Y577500D02*
D03*
X493000Y981500D02*
D03*
Y999000D02*
D03*
X888000Y700500D02*
D03*
Y683000D02*
D03*
X860000Y701500D02*
D03*
Y684000D02*
D03*
X799000D02*
D03*
Y701500D02*
D03*
X680000Y517500D02*
D03*
Y535000D02*
D03*
X1018000Y924500D02*
D03*
Y907000D02*
D03*
X1121000Y906000D02*
D03*
Y923500D02*
D03*
X1038142Y1002500D02*
D03*
Y985000D02*
D03*
X1096000Y534500D02*
D03*
Y552000D02*
D03*
X1021000Y591000D02*
D03*
Y573500D02*
D03*
X1065000Y688500D02*
D03*
Y671000D02*
D03*
X1014000Y725000D02*
D03*
Y742500D02*
D03*
X946000Y1013500D02*
D03*
Y996000D02*
D03*
X830000Y700500D02*
D03*
Y683000D02*
D03*
X978000Y805500D02*
D03*
Y788000D02*
D03*
X784255Y1095412D02*
D03*
Y1112912D02*
D03*
X374000Y788000D02*
D03*
Y805500D02*
D03*
X538000Y707000D02*
D03*
Y724500D02*
D03*
X567000Y724000D02*
D03*
Y706500D02*
D03*
X531000Y1048000D02*
D03*
Y1065500D02*
D03*
X561000Y1065000D02*
D03*
Y1047500D02*
D03*
X518000Y854000D02*
D03*
Y836500D02*
D03*
D23*
X426560Y1042975D02*
D03*
Y1037975D02*
D03*
Y1032975D02*
D03*
Y1027975D02*
D03*
Y1022975D02*
D03*
X468670Y1042975D02*
D03*
Y1037975D02*
D03*
Y1032975D02*
D03*
Y1027975D02*
D03*
Y1022975D02*
D03*
X474940Y685509D02*
D03*
Y690509D02*
D03*
Y695509D02*
D03*
Y700509D02*
D03*
Y705509D02*
D03*
X432830Y685509D02*
D03*
Y690509D02*
D03*
Y695509D02*
D03*
Y700509D02*
D03*
Y705509D02*
D03*
D24*
X447005Y1033000D02*
D03*
X453275Y695534D02*
D03*
D25*
X827000Y995000D02*
D03*
X750000D02*
D03*
X1295000Y235000D02*
D03*
X1372000D02*
D03*
D26*
X113933Y339431D02*
D03*
X110000Y455000D02*
D03*
X115000Y520000D02*
D03*
X974680Y49897D02*
D03*
X115000Y560000D02*
D03*
X1305000Y585000D02*
D03*
X1360000D02*
D03*
Y820000D02*
D03*
X1305000D02*
D03*
X1162980Y948895D02*
D03*
X1162160Y873910D02*
D03*
X1162270Y909776D02*
D03*
X1134250Y584370D02*
D03*
X825000Y1105000D02*
D03*
X508000Y182000D02*
D03*
X489000Y1363000D02*
D03*
X432000Y467000D02*
D03*
X353000Y1360000D02*
D03*
X1237000Y1371000D02*
D03*
X550000Y1120000D02*
D03*
X1210000Y1300000D02*
D03*
X424000Y1361000D02*
D03*
X1093000Y1375000D02*
D03*
X1163000Y1371000D02*
D03*
X1320000Y1325000D02*
D03*
X1115000Y400000D02*
D03*
X1395000Y855000D02*
D03*
X1305000D02*
D03*
Y1075000D02*
D03*
X1363691Y1076610D02*
D03*
X1377656Y1322732D02*
D03*
D27*
X595900Y438000D02*
D03*
D28*
X573000Y505000D02*
D03*
X618800D02*
D03*
D29*
X502000Y806000D02*
D03*
D30*
X487000Y806876D02*
D03*
X517000Y806875D02*
D03*
D31*
X610000Y715000D02*
D03*
X672000D02*
D03*
D32*
X860984Y420109D02*
D03*
X1175000Y650000D02*
D03*
X1178821Y591961D02*
D03*
X740000Y420000D02*
D03*
X730000Y480000D02*
D03*
Y535000D02*
D03*
X1345000Y1415000D02*
D03*
D33*
X1080000Y54000D02*
D03*
Y75000D02*
D03*
X558972Y71521D02*
D03*
Y50521D02*
D03*
X631000Y54000D02*
D03*
Y75000D02*
D03*
D34*
X828000Y461650D02*
D03*
X776000D02*
D03*
Y506100D02*
D03*
Y499750D02*
D03*
Y493400D02*
D03*
Y487050D02*
D03*
Y480700D02*
D03*
Y474350D02*
D03*
Y468000D02*
D03*
X828000Y506100D02*
D03*
Y499750D02*
D03*
Y493400D02*
D03*
Y487050D02*
D03*
Y480700D02*
D03*
Y474350D02*
D03*
Y468000D02*
D03*
D35*
X908616Y949825D02*
D03*
Y919825D02*
D03*
X953616D02*
D03*
Y949825D02*
D03*
X908616Y929825D02*
D03*
Y934825D02*
D03*
Y939825D02*
D03*
Y944825D02*
D03*
Y924825D02*
D03*
X953616Y929825D02*
D03*
Y924825D02*
D03*
Y934825D02*
D03*
Y939825D02*
D03*
Y944825D02*
D03*
X980618Y661766D02*
D03*
Y656766D02*
D03*
Y651766D02*
D03*
Y641766D02*
D03*
Y646766D02*
D03*
X935618Y641766D02*
D03*
Y661766D02*
D03*
Y656766D02*
D03*
Y651766D02*
D03*
Y646766D02*
D03*
X980618Y666766D02*
D03*
Y636766D02*
D03*
X935618D02*
D03*
Y666766D02*
D03*
D36*
X916660Y910926D02*
D03*
X946660D02*
D03*
Y958926D02*
D03*
X916660D02*
D03*
X941660D02*
D03*
X936660D02*
D03*
X931660D02*
D03*
X926660D02*
D03*
X921660D02*
D03*
X941660Y910926D02*
D03*
X936660D02*
D03*
X931660D02*
D03*
X926660D02*
D03*
X921660D02*
D03*
X948662Y627868D02*
D03*
X953662D02*
D03*
X958662D02*
D03*
X963662D02*
D03*
X968662D02*
D03*
X948662Y675867D02*
D03*
X953662D02*
D03*
X958662D02*
D03*
X963662D02*
D03*
X968662D02*
D03*
X943662D02*
D03*
X973662D02*
D03*
Y627868D02*
D03*
X943662D02*
D03*
D37*
X931089Y935000D02*
D03*
X958091Y651941D02*
D03*
D38*
X1090800Y1095200D02*
D03*
D39*
X1028000Y1117200D02*
D03*
Y1105800D02*
D03*
Y1083000D02*
D03*
Y1071600D02*
D03*
D40*
X934761Y436613D02*
D03*
X979761D02*
D03*
D41*
X478000Y406000D02*
D03*
Y431400D02*
D03*
X388000Y406000D02*
D03*
Y431400D02*
D03*
D42*
X604000Y594000D02*
D03*
Y565000D02*
D03*
X594000Y946000D02*
D03*
Y917000D02*
D03*
X509000Y736000D02*
D03*
Y707000D02*
D03*
X574000Y619000D02*
D03*
Y648000D02*
D03*
X408000Y913000D02*
D03*
Y884000D02*
D03*
X501000Y1076000D02*
D03*
Y1047000D02*
D03*
X564000Y970000D02*
D03*
Y999000D02*
D03*
X409000Y594000D02*
D03*
Y565000D02*
D03*
D43*
X1075000Y635000D02*
D03*
Y625500D02*
D03*
Y616000D02*
D03*
X1101000Y635000D02*
D03*
Y616000D02*
D03*
X1067000Y925500D02*
D03*
Y916000D02*
D03*
Y906500D02*
D03*
X1093000Y925500D02*
D03*
Y906500D02*
D03*
D44*
X334840Y1238927D02*
D03*
X394711D02*
D03*
X454583D02*
D03*
X514454D02*
D03*
X574326D02*
D03*
X634197D02*
D03*
X694068D02*
D03*
X753940D02*
D03*
X813811D02*
D03*
X873683D02*
D03*
X933554D02*
D03*
X993426D02*
D03*
X1053297D02*
D03*
X1113168D02*
D03*
X1173040D02*
D03*
X334840Y277537D02*
D03*
X394711D02*
D03*
X454583D02*
D03*
X634197D02*
D03*
X694068D02*
D03*
X753940D02*
D03*
X813811D02*
D03*
X873683D02*
D03*
X933554D02*
D03*
X993426D02*
D03*
X1053297D02*
D03*
X1113168D02*
D03*
X1173040D02*
D03*
X514454D02*
D03*
X574326D02*
D03*
D45*
X271340Y1226227D02*
D03*
X272610Y288967D02*
D03*
X1231460Y1227497D02*
D03*
X1234000Y288967D02*
D03*
D46*
X271358Y577076D02*
D03*
X272610Y337227D02*
D03*
Y397189D02*
D03*
Y457151D02*
D03*
Y637038D02*
D03*
X272628Y517114D02*
D03*
X272610Y697000D02*
D03*
Y816924D02*
D03*
Y756962D02*
D03*
Y876886D02*
D03*
Y936849D02*
D03*
Y996811D02*
D03*
Y1056773D02*
D03*
Y1116735D02*
D03*
Y1176697D02*
D03*
X1234000Y936849D02*
D03*
Y1176697D02*
D03*
Y337227D02*
D03*
Y397189D02*
D03*
Y637038D02*
D03*
Y697000D02*
D03*
Y756962D02*
D03*
Y816924D02*
D03*
Y876886D02*
D03*
Y996811D02*
D03*
Y1056773D02*
D03*
Y1116735D02*
D03*
Y577076D02*
D03*
Y517114D02*
D03*
Y457151D02*
D03*
D47*
X281500Y1238927D02*
D03*
X282770Y278807D02*
D03*
X1222570Y1238927D02*
D03*
X1221300Y277537D02*
D03*
D48*
X391000Y942600D02*
D03*
Y976000D02*
D03*
X397000Y658000D02*
D03*
Y624600D02*
D03*
D49*
X1090000Y825000D02*
D03*
Y748000D02*
D03*
D50*
X637000Y1049000D02*
D03*
Y1111000D02*
D03*
D51*
X609000Y971000D02*
D03*
Y994700D02*
D03*
X618000Y620300D02*
D03*
Y644000D02*
D03*
M02*
