M48
;Layer_Color=9474304
;FILE_FORMAT=4:4
METRIC,LZ
;TYPE=PLATED
T1F00S00C0.6000
T2F00S00C0.7112
T3F00S00C0.8000
T5F00S00C0.8900
T6F00S00C0.9200
T7F00S00C1.0200
T8F00S00C1.3000
T9F00S00C1.8000
T10F00S00C2.0100
T11F00S00C2.1500
T12F00S00C4.5000
%
T01
X00076349Y00054756
X00126349Y00154756
X00076349Y00254756
X0013Y0032
X00176349Y00254756
X00226349Y00154756
X00326349
X00376349Y00254756
X00476349
X0054Y00345
X00476349Y00054756
X00376349
X00276349
X00176349
X00576349
X00676349
X00776349
X00876349
X00926349Y00154756
X00965Y00195
X0096Y0023
X0078Y00215
X00776349Y00254756
X00676349
X00726349Y00154756
X00826349
X0098Y00195
X00995
X01026349Y00154756
X01126349
X0113Y0012
X01226349Y00154756
X01326349
X01276349Y00254756
X01076349
X00976349
X01376349
Y00054756
X01426349Y00354756
X01376349Y00654756
X01276349
X01119366Y00658337
X01055Y00655
X01011Y006165
X00989948Y00627475
X00984864Y00676837
X00971Y00692
X01074445Y00744517
X01026349Y00554756
X0116Y00565
Y0053
X01185
X0121
X01176349Y00454756
X01276349
X01326349Y00354756
X01126349
X01026349
X01076349Y00454756
X00976349
X00945Y0055
X00922Y00562
X00945Y00585
X0094273Y00604062
X00962478Y0060948
X00964715Y00645
X0095
X00958081Y00659113
X00957Y007075
X0096Y0074
X0089Y0073
X00905Y00705
X00823686Y00723686
X0074Y0072
X00705
X00678953Y00657361
X00685Y0064
X00683Y00586
X0067
X00657
X00626349Y00554756
X007335Y00564013
X0077Y0055
X00748749Y0051875
X00705752Y00506869
X00676349Y00454756
X00655Y0038
X00626349Y00354756
X00705Y0037
X00826349Y00354756
X00926349
X009Y00535
X00896843Y00596843
X00840038Y00529569
X00815Y00535
X00795Y00475
X00778Y00654756
X00605Y00685
Y007
X0059
Y00685
Y00735
X0057Y0067
X00525Y00675
X00505Y00685
X00489558Y00677508
X00452861Y006965
X00415Y00685
Y00735
X00293429Y0073113
X0024Y0067
X00176001Y00654408
X00226349Y00554756
X00326349
X00409236Y00577385
X00445Y00575
Y0056
X00445062Y00544853
X00465Y0056
X00526349Y00554756
X0055Y0056
Y00545
X00565
X0052Y0063
X00505
X00485Y00625
X00405Y00485
X00426349Y00354756
X00526349
X00539576Y0038196
X00326349Y00354756
X00226349
X00135Y0037
Y00405
X00076349Y00454756
Y00654756
X00145Y00595
X00126349Y00754756
X00076349Y01054756
X00176349
X00245Y00975
X00226349Y00954756
X00326349
X0034Y00915
Y009
X0035Y00825
Y0081
X00350229Y0079373
X0036Y0076
X00326349Y00754756
X00406943Y00759491
X00402411Y00788911
X00414306Y00788656
X0044513Y00790349
X00426538Y0085878
X00413538
X00399538
X00475Y00895
X00509714Y00879857
X0052Y00885
X00505433Y00969163
X00515Y00995
X0053Y0099
X00531114Y01006482
X00565Y01015
X00452673Y01038641
X00438Y01068
X00406Y01091
X00427Y01013
X00426349Y00954756
X00176349Y00854756
X00226349Y00754756
X00626349
X006285Y00774144
X00646843Y00771843
X00668121Y00768036
X00684714Y00769857
X00695Y00775
X00737512Y00774404
X0074Y0079
X00758619Y00795964
X0076Y008135
X00761391Y008295
X00759839Y00840895
X0078Y008375
X00784822Y00872314
X00779291Y00888
X00765Y00889
X00755Y0088
X00741747Y00873
X007245Y00893929
X0072811Y00930187
X00706916Y00924584
X00667Y0092
X00655Y0094
Y00955
X00724895Y00956209
X0079Y00985
Y01
X00776349Y01054756
X00856093Y01037407
X0086Y01085
X00825Y01105
X00912828Y01061464
X00945Y01085
X00894891Y01010668
X00856528Y0097708
X00826349Y00954756
X00815Y00915
X00866Y00918
X00875Y009
X00858Y008966
X00866742Y00877374
X00835Y00875
X0084Y0082
X0081
Y0076
X00826349Y00754756
X0089Y0075
X0094Y007725
X00953506Y00799559
X0090664Y00830313
X00905686Y00874686
X00917Y00886
X00934389Y00896266
X00938121Y00929185
X00923121
X00931202Y00943298
X00965Y00965
X00962033Y0090537
X0086575Y00803
X00707441Y00807183
X0069Y00815
X00696471Y00829055
X007Y0084
X00715Y00835
X00724541Y00848179
X00713868Y00860133
X00694232Y00861857
X00685Y00855
X00675Y00835
X00638082Y00835456
X00637776Y00855911
X00629013Y00881522
X00595Y00855
X00581453Y00859861
X00609128Y00808511
X00639329Y00795365
X00664Y01135
X0059Y01125
X0099Y01075
X0097Y0087
X01000745Y00827964
X0105Y00865
X01074445Y00759517
X01026349Y00754756
X01126349
X01326349
X01335Y01085
X01195Y0113
X0116Y0093
X01376349Y01054756
X01426349Y00754756
Y01154756
Y01354756
X01322189Y01374308
X0131Y0145
X01242933Y01451026
X01167721Y01451208
X01095Y0145
X01076349Y01254756
X00976349
X01026349Y01154756
X01126349
X01326349
X0135Y0125
X01275Y01275
X01263009Y01286799
X01267Y01304
X00926349Y01154756
X00826349
X00726349
X00621013
X0061Y0129
X0066
X00682093Y01254756
X00776349
X00726349Y01354756
X00515Y01445
X0045
X0039
X002575Y0146
X00245
X002325
X0022
X002075
X00226349Y01354756
X00326349
X00376349Y01254756
X00476349
X00426349Y01154756
X00326349
X00226349
X00225Y01175
X0025209Y01197974
X00176349Y01254756
X00526349Y01154756
X00126349
X00076349Y01254756
X00126349Y01354756
T02
X00282505Y00254757
X00335Y00255
X00395
X00455
X00515
X0025Y0029
Y00334629
X00575Y00255
X00635
X00693913
X00754145
X00814593
X00873033
X00934083
X00992924
X010534
X01113607
X01174083
X01221615
X01255Y0029
Y00335
X01363833Y00211706
X01382142Y00212287
X01255Y00395
Y00455
Y00515
Y0056815
Y00635
Y00695
X0025Y00694629
Y0063265
Y00574629
Y00515
Y00459629
Y004
Y00755
Y00814629
Y00875
Y00934629
Y00995
Y01054629
Y01116371
X01255Y01115
Y01055
Y00995
Y00935
Y00875
Y00815
Y00755
Y01175
Y01225
X0122Y0126
X01175Y01265
X01115
X01055
X00995
X00935
X00875
X00815
X00755
X00695
X0063935
X00575
X00515
X0039
X00335
X00280968
X0025052Y0122552
X0025Y01176
T03
X00745Y00155
X01056Y00583
X01115Y006
X013042Y00585116
X005Y0047
X00135Y00975
X01039Y01031
X01034575Y00849592
X0116227Y00909776
X01305Y00855
X0127Y01075
T05
X003768Y00175
X004022
T06
X007553Y00132
X007803
X008003
X008253
T07
X00068Y003518
Y003772
Y004026
Y00428
X0006729Y005088
Y005342
Y005596
Y00585
Y006104
Y006358
X0007237Y0070946
Y0073486
Y0076026
Y0078566
Y0081106
Y0083646
Y0086186
Y0088726
X00065Y011
Y011254
X002086Y01415
X00234
X002594
X00065Y011508
T08
X0143Y00165
Y0039
T09
X00134Y0021
X00189
X01365Y0047
X0131
X01305Y00695
Y00737
X0136
Y00695
Y00945
Y00987
X01305
Y00945
X01307Y0119
X01362
X00959941Y01324
X00917941
X00875941
X00833941
X00791941
X00749941
X00707941
X00665941
X00623941
Y01379
X00665941
X00707941
X00749941
X00791941
X00833941
X00875941
X00917941
X00959941
X00189Y01303
X00134
T10
X00326Y001242
X004276
T11
X007246Y00105
X00856
T12
X001Y001
X014
Y014
X001
M30
